<svg width="24" height="24" viewBox="0 0 24 24" fill="currentColor" xmlns="http://www.w3.org/2000/svg">
	<g clip-path="url(#clip0_29_100)">
		<path d="M20.25 20.25V10.8281C20.2483 10.7243 20.2259 10.6219 20.184 10.5269C20.1422 10.4319 20.0817 10.3463 20.0062 10.275L12.5062 3.45938C12.368 3.33289 12.1874 3.26274 12 3.26274C11.8126 3.26274 11.632 3.33289 11.4937 3.45938L3.99375 10.275C3.91828 10.3463 3.85783 10.4319 3.81597 10.5269C3.77411 10.6219 3.75168 10.7243 3.75 10.8281V20.25" stroke="#333333" stroke-width="1.5" stroke-linecap="round" stroke-linejoin="round" />
		<path d="M1.5 20.25H22.5" stroke="#333333" stroke-width="1.5" stroke-linecap="round" stroke-linejoin="round" />
		<path d="M14.25 20.25V15C14.25 14.8011 14.171 14.6103 14.0303 14.4697C13.8897 14.329 13.6989 14.25 13.5 14.25H10.5C10.3011 14.25 10.1103 14.329 9.96967 14.4697C9.82902 14.6103 9.75 14.8011 9.75 15V20.25" stroke="#333333" stroke-width="1.5" stroke-linecap="round" stroke-linejoin="round" />
	</g>
	<defs>
		<clipPath id="clip0_29_100">
			<rect width="24" height="24" fill="white" />
		</clipPath>
	</defs>
</svg>
