<svg width="48" height="48" viewBox="0 0 48 48" fill="none" xmlns="http://www.w3.org/2000/svg">
<rect width="48" height="48" rx="8" fill="#F2F2F2"/>
<path d="M21.5 14C18.7386 14 16.5 16.2386 16.5 19C16.5 21.7614 18.7386 24 21.5 24C24.2614 24 26.5 21.7614 26.5 19C26.5 16.2386 24.2614 14 21.5 14ZM14 19C14 14.8579 17.3579 11.5 21.5 11.5C25.6421 11.5 29 14.8579 29 19C29 23.1421 25.6421 26.5 21.5 26.5C17.3579 26.5 14 23.1421 14 19ZM36.0805 23.0658C36.5964 23.5244 36.6429 24.3145 36.1842 24.8305L32.8509 28.5805C32.6138 28.8474 32.2738 29 31.9166 29C31.5596 29 31.2196 28.8474 30.9824 28.5805L29.3158 26.7055C28.8571 26.1895 28.9036 25.3994 29.4195 24.9408C29.9355 24.4821 30.7256 24.5286 31.1842 25.0445L31.9166 25.8685L34.3158 23.1695C34.7744 22.6536 35.5645 22.6071 36.0805 23.0658ZM17.125 31.5C15.5507 31.5 14 33.0169 14 35.25C14 35.9404 13.4404 36.5 12.75 36.5C12.0597 36.5 11.5 35.9404 11.5 35.25C11.5 31.9603 13.8668 29 17.125 29H25.875C29.1331 29 31.5 31.9603 31.5 35.25C31.5 35.9404 30.9404 36.5 30.25 36.5C29.5596 36.5 29 35.9404 29 35.25C29 33.0169 27.4494 31.5 25.875 31.5H17.125Z" fill="#333333"/>
</svg>
