<svg width="48" height="48" viewBox="0 0 48 48" fill="none" xmlns="http://www.w3.org/2000/svg">
<rect width="48" height="48" rx="8" fill="#F2F2F2"/>
<path d="M14 17.2919C14.1748 17.2212 14.385 17.1432 14.6286 17.0644C15.4902 16.7859 16.7663 16.5 18.375 16.5C19.9837 16.5 21.2598 16.7859 22.1214 17.0644C22.365 17.1432 22.5751 17.2212 22.75 17.2919V30.8911C21.686 30.5606 20.2002 30.25 18.375 30.25C16.5498 30.25 15.064 30.5606 14 30.8911V17.2919ZM24 15.1066C23.7179 14.9815 23.3456 14.8328 22.8904 14.6856C21.8182 14.3391 20.2819 14 18.375 14C16.4681 14 14.9317 14.3391 13.8597 14.6856C13.3237 14.8588 12.9029 15.0342 12.6086 15.1707C12.4614 15.239 12.3456 15.2976 12.2625 15.3416C12.221 15.3636 12.1876 15.3819 12.1626 15.396L12.1314 15.4138L12.1205 15.4201L12.1162 15.4226L12.1144 15.4237C12.1119 15.4251 11.8064 15.6062 12.1128 15.4246C11.7329 15.6497 11.5 16.0585 11.5 16.5V32.75C11.5 33.1991 11.7409 33.6138 12.1312 33.8361C12.5211 34.0583 13.0003 34.0544 13.3865 33.8257C13.3831 33.8277 13.381 33.829 13.381 33.829L13.3826 33.8281L13.3846 33.827L13.3865 33.8257C13.3941 33.8215 13.4095 33.8131 13.4325 33.801C13.4785 33.7766 13.555 33.7376 13.6604 33.6886C13.8715 33.5907 14.1978 33.4536 14.6286 33.3144C15.4902 33.0359 16.7663 32.75 18.375 32.75C19.9837 32.75 21.2598 33.0359 22.1214 33.3144C22.5522 33.4536 22.8785 33.5907 23.0896 33.6886C23.195 33.7376 23.2715 33.7766 23.3175 33.801C23.3405 33.8131 23.3559 33.8216 23.3635 33.826C23.367 33.8279 23.369 33.829 23.369 33.829L24 15.1066ZM23.369 33.829L23.3674 33.8281L23.3655 33.827L23.3635 33.826C23.756 34.0577 24.2443 34.0579 24.6365 33.8257C24.6441 33.8215 24.6595 33.8131 24.6825 33.801C24.7285 33.7766 24.805 33.7376 24.9104 33.6886C25.1215 33.5907 25.4478 33.4536 25.8786 33.3144C26.7401 33.0359 28.0163 32.75 29.625 32.75C31.2337 32.75 32.5099 33.0359 33.3714 33.3144C33.8023 33.4536 34.1285 33.5907 34.3396 33.6886C34.445 33.7376 34.5215 33.7766 34.5675 33.801C34.5905 33.8131 34.6059 33.8216 34.6135 33.826L34.6149 33.8266C35.0009 34.0544 35.4794 34.058 35.8689 33.8361C36.259 33.6138 36.5 33.1991 36.5 32.75V16.5C36.5 16.0585 36.2671 15.6497 35.8872 15.4246L35.8856 15.4237L35.8838 15.4226L35.8795 15.4201L35.8686 15.4138L35.8374 15.396C35.8124 15.3819 35.779 15.3636 35.7375 15.3416C35.6545 15.2976 35.5386 15.239 35.3914 15.1707C35.097 15.0342 34.6763 14.8588 34.1404 14.6856C33.0683 14.3391 31.5319 14 29.625 14C27.7181 14 26.1818 14.3391 25.1096 14.6856C24.6544 14.8328 24.2821 14.9815 24 15.1066L23.369 33.829ZM34 17.2919V30.8911C32.936 30.5606 31.4503 30.25 29.625 30.25C27.7997 30.25 26.314 30.5606 25.25 30.8911V17.2919C25.4249 17.2212 25.635 17.1432 25.8786 17.0644C26.7401 16.7859 28.0163 16.5 29.625 16.5C31.2337 16.5 32.5099 16.7859 33.3714 17.0644C33.615 17.1432 33.8251 17.2212 34 17.2919ZM34.6135 17.5759C34.6169 17.5779 34.619 17.5791 34.619 17.5791L34.6174 17.5781L34.6135 17.5759ZM34.6135 33.826L34.6176 33.8283L34.6149 33.8266" fill="#333333"/>
</svg>
