<svg width="38" height="38" viewBox="0 0 38 38" fill="none" xmlns="http://www.w3.org/2000/svg">
<path d="M0 8C0 3.58172 3.58172 0 8 0H30C34.4183 0 38 3.58172 38 8V30C38 34.4183 34.4183 38 30 38H8C3.58172 38 0 34.4183 0 30V8Z" fill="#F2F2F2"/>
<path d="M16 13V14.5H22V13C22 11.3431 23.3431 10 25 10C26.6569 10 28 11.3431 28 13C28 14.6569 26.6569 16 25 16H23.5V22H25C26.6569 22 28 23.3431 28 25C28 26.6569 26.6569 28 25 28C23.3431 28 22 26.6569 22 25V23.5H16V25C16 26.6569 14.6569 28 13 28C11.3431 28 10 26.6569 10 25C10 23.3431 11.3431 22 13 22H14.5V16H13C11.3431 16 10 14.6569 10 13C10 11.3431 11.3431 10 13 10C14.6569 10 16 11.3431 16 13ZM14.5 14.5V13C14.5 12.1716 13.8284 11.5 13 11.5C12.1716 11.5 11.5 12.1716 11.5 13C11.5 13.8284 12.1716 14.5 13 14.5H14.5ZM22 22V16H16V22H22ZM23.5 23.5V25C23.5 25.8285 24.1715 26.5 25 26.5C25.8285 26.5 26.5 25.8285 26.5 25C26.5 24.1715 25.8285 23.5 25 23.5H23.5ZM25 14.5C25.8285 14.5 26.5 13.8284 26.5 13C26.5 12.1716 25.8285 11.5 25 11.5C24.1715 11.5 23.5 12.1716 23.5 13V14.5H25ZM14.5 23.5H13C12.1716 23.5 11.5 24.1715 11.5 25C11.5 25.8285 12.1716 26.5 13 26.5C13.8284 26.5 14.5 25.8285 14.5 25V23.5Z" fill="#4F4F4F"/>
</svg>
