<svg width="18" height="19" viewBox="0 0 18 19" fill="none" xmlns="http://www.w3.org/2000/svg">
<path d="M6 3.51026V4.96803H12V3.51026C12 1.90005 13.3431 0.594727 15 0.594727C16.6569 0.594727 18 1.90005 18 3.51026C18 5.12047 16.6569 6.42579 15 6.42579H13.5V12.2569H15C16.6569 12.2569 18 13.5621 18 15.1724C18 16.7826 16.6569 18.0879 15 18.0879C13.3431 18.0879 12 16.7826 12 15.1724V13.7146H6V15.1724C6 16.7826 4.65686 18.0879 3 18.0879C1.34314 18.0879 0 16.7826 0 15.1724C0 13.5621 1.34314 12.2569 3 12.2569H4.5V6.42579H3C1.34314 6.42579 0 5.12047 0 3.51026C0 1.90005 1.34314 0.594727 3 0.594727C4.65686 0.594727 6 1.90005 6 3.51026ZM4.5 4.96803V3.51026C4.5 2.70516 3.82842 2.05249 3 2.05249C2.17158 2.05249 1.5 2.70516 1.5 3.51026C1.5 4.31536 2.17158 4.96803 3 4.96803H4.5ZM12 12.2569V6.42579H6V12.2569H12ZM13.5 13.7146V15.1724C13.5 15.9775 14.1715 16.6302 15 16.6302C15.8285 16.6302 16.5 15.9775 16.5 15.1724C16.5 14.3673 15.8285 13.7146 15 13.7146H13.5ZM15 4.96803C15.8285 4.96803 16.5 4.31536 16.5 3.51026C16.5 2.70516 15.8285 2.05249 15 2.05249C14.1715 2.05249 13.5 2.70516 13.5 3.51026V4.96803H15ZM4.5 13.7146H3C2.17158 13.7146 1.5 14.3673 1.5 15.1724C1.5 15.9775 2.17158 16.6302 3 16.6302C3.82842 16.6302 4.5 15.9775 4.5 15.1724V13.7146Z" fill="#4F4F4F"/>
</svg>
