<svg width="70" height="70" viewBox="0 0 70 70" fill="none" xmlns="http://www.w3.org/2000/svg">
<circle cx="35" cy="35" r="35" fill="#219653"/>
<path d="M48.9912 29.1462V29C48.9912 26.2386 46.7526 24 43.9912 24H34.3284L31.1278 21.5999C30.6086 21.2105 29.977 21 29.328 21H24C21.2383 21 18.9996 23.239 19 26.0007L19.0024 43.9956C19.0027 46.5544 20.9252 48.6642 23.4046 48.9596C23.5734 48.989 23.7475 49.0042 23.9258 49.0042H45.3596C46.7962 49.0042 48.0312 47.9858 48.3048 46.5754L51.0194 32.5754C51.3174 31.0393 50.392 29.5941 48.9912 29.1462ZM24 23H29.328C29.5443 23 29.7548 23.0702 29.9279 23.2L33.3951 25.8C33.5682 25.9298 33.7787 26 33.9951 26H43.9912C45.648 26 46.9912 27.3431 46.9912 29V29.0043H26.648C25.2119 29.0043 23.9773 30.022 23.7032 31.4317L21.107 44.7832C21.0388 44.5322 21.0024 44.268 21.0024 43.9952L21 26.0004C20.9998 24.3434 22.343 23 24 23ZM25.6664 31.8134C25.7578 31.3435 26.1693 31.0043 26.648 31.0043H48.0744C48.703 31.0043 49.1758 31.5775 49.056 32.1946L46.3412 46.1946C46.2502 46.6648 45.8384 47.0042 45.3596 47.0042H23.9258C23.2969 47.0042 22.8241 46.4308 22.9442 45.8134L25.6664 31.8134Z" fill="white"/>
</svg>
