<svg width="70" height="70" viewBox="0 0 70 70" fill="none" xmlns="http://www.w3.org/2000/svg">
<circle cx="35" cy="35" r="35" fill="#F2994A"/>
<path d="M41.9999 24.9997C41.9999 24.0792 42.7461 23.333 43.6666 23.333C44.7278 23.333 45.7706 23.5462 46.7856 23.9522C47.8901 24.394 48.7403 25.0497 49.5118 25.8212C50.2833 26.5926 50.9389 27.4428 51.3808 28.5474C51.7868 29.5623 51.9999 30.6051 51.9999 31.6663C51.9999 32.7275 51.7868 33.7703 51.3808 34.7853C50.9444 35.876 50.2996 36.7187 49.5408 37.4825L47.8998 39.2875C47.8821 39.307 47.8638 39.3262 47.8451 39.3448L42.5117 44.6782C41.7402 45.4497 40.8901 46.1053 39.7856 46.5472C38.7706 46.9532 37.7278 47.1663 36.6666 47.1663C35.6054 47.1663 34.5626 46.9532 33.5476 46.5472C32.4431 46.1053 31.5929 45.4497 30.8214 44.6782C30.0499 43.9067 29.3943 43.0565 28.9525 41.952C28.5387 40.9175 28.3333 39.8737 28.3333 38.6663C28.3333 37.6052 28.5465 36.5623 28.9525 35.5473C29.3943 34.4428 30.0499 33.5927 30.8214 32.8212L32.6548 30.9878C33.3056 30.337 34.3609 30.337 35.0118 30.9878C35.6626 31.6387 35.6626 32.694 35.0118 33.3448L33.1784 35.1782C32.6166 35.74 32.2723 36.2232 32.0474 36.7853C31.7868 37.437 31.6666 38.0608 31.6666 38.6663C31.6666 39.459 31.7944 40.0818 32.0474 40.714C32.2723 41.2762 32.6166 41.7593 33.1784 42.3212C33.7403 42.883 34.2234 43.2273 34.7856 43.4522C35.4373 43.7128 36.0611 43.833 36.6666 43.833C37.2721 43.833 37.8959 43.7128 38.5476 43.4522C39.1098 43.2273 39.5929 42.883 40.1548 42.3212L45.4601 37.0158L47.1001 35.2118C47.1178 35.1923 47.1361 35.1732 47.1548 35.1545C47.7166 34.5927 48.0609 34.1095 48.2858 33.5473C48.5464 32.8957 48.6666 32.2718 48.6666 31.6663C48.6666 31.0609 48.5464 30.4371 48.2858 29.7853C48.0609 29.2232 47.7166 28.74 47.1548 28.1782C46.5929 27.6163 46.1098 27.272 45.5476 27.0471C44.8959 26.7864 44.2721 26.6663 43.6666 26.6663C42.7461 26.6663 41.9999 25.9201 41.9999 24.9997ZM33.8333 27.4997C33.2278 27.4997 32.6039 27.6198 31.9523 27.8805C31.3901 28.1053 30.907 28.4497 30.3451 29.0115L24.8731 34.4835L23.2332 36.2875C23.2154 36.307 23.1971 36.3262 23.1784 36.3448C22.6166 36.9067 22.2722 37.3898 22.0474 37.952C21.7867 38.6037 21.6666 39.2275 21.6666 39.833C21.6666 40.4385 21.7867 41.0623 22.0474 41.714C22.2722 42.2762 22.6166 42.7593 23.1784 43.3212C23.7403 43.883 24.2234 44.2273 24.7856 44.4522C25.4373 44.7128 26.0612 44.833 26.6666 44.833C27.5871 44.833 28.3333 45.5792 28.3333 46.4997C28.3333 47.4202 27.5871 48.1663 26.6666 48.1663C25.6054 48.1663 24.5625 47.9532 23.5476 47.5472C22.4431 47.1053 21.5929 46.4497 20.8214 45.6782C20.0499 44.9067 19.3943 44.0565 18.9525 42.952C18.5465 41.937 18.3333 40.8942 18.3333 39.833C18.3333 38.7718 18.5465 37.729 18.9525 36.714C19.3887 35.6233 20.0335 34.7807 20.7924 34.0168L22.4334 32.2118C22.4511 32.1923 22.4694 32.1732 22.4881 32.1545L27.9881 26.6545C28.7596 25.883 29.6098 25.2274 30.7143 24.7855C31.7293 24.3796 32.7721 24.1663 33.8333 24.1663C34.8944 24.1663 35.9373 24.3796 36.9523 24.7855C38.0568 25.2274 38.9069 25.883 39.6784 26.6545C40.4499 27.426 41.1056 28.2762 41.5474 29.3807C41.9534 30.3956 42.1666 31.4384 42.1666 32.4997C42.1666 33.5608 41.9534 34.6037 41.5474 35.6187C41.1106 36.7105 40.4649 37.5538 39.7049 38.3183L37.8953 40.2925C37.2733 40.971 36.2189 41.0168 35.5404 40.395C34.8619 39.773 34.8161 38.7187 35.4379 38.0402L37.2713 36.0402C37.2876 36.0223 37.3044 36.0048 37.3214 35.9878C37.8833 35.426 38.2276 34.9428 38.4524 34.3807C38.7131 33.729 38.8333 33.1052 38.8333 32.4997C38.8333 31.8942 38.7131 31.2704 38.4524 30.6187C38.2276 30.0565 37.8833 29.5734 37.3214 29.0115C36.7596 28.4497 36.2764 28.1053 35.7143 27.8805C35.0626 27.6198 34.4388 27.4997 33.8333 27.4997Z" fill="white"/>
</svg>
