<svg width="48" height="48" viewBox="0 0 48 48" fill="none" xmlns="http://www.w3.org/2000/svg">
<rect width="48" height="48" rx="8" fill="#F2F2F2"/>
<path d="M20.25 11.5C20.9403 11.5 21.5 12.0597 21.5 12.75V14H26.5V12.75C26.5 12.0597 27.0596 11.5 27.75 11.5C28.4404 11.5 29 12.0597 29 12.75V14H32.75C34.1308 14 35.25 15.1193 35.25 16.5V32.75C35.25 34.1308 34.1308 35.25 32.75 35.25H15.25C13.8693 35.25 12.75 34.1308 12.75 32.75V16.5C12.75 15.1193 13.8693 14 15.25 14H19V12.75C19 12.0597 19.5596 11.5 20.25 11.5ZM19 16.5H15.25V20.25H32.75V16.5H29V17.75C29 18.4404 28.4404 19 27.75 19C27.0596 19 26.5 18.4404 26.5 17.75V16.5H21.5V17.75C21.5 18.4404 20.9403 19 20.25 19C19.5596 19 19 18.4404 19 17.75V16.5ZM32.75 22.75H15.25V32.75H32.75V22.75Z" fill="#333333"/>
</svg>
