<svg width="48" height="48" viewBox="0 0 48 48" fill="none" xmlns="http://www.w3.org/2000/svg">
<rect width="48" height="48" rx="8" fill="#F2F2F2"/>
<path d="M35.875 16.625C35.5 16.375 35 16.375 34.625 16.625L29.125 20.375V17.75C29.125 16.375 28 15.25 26.625 15.25H14C12.625 15.25 11.5 16.375 11.5 17.75V30.25C11.5 31.625 12.625 32.75 14 32.75H26.5C27.875 32.75 29 31.625 29 30.25V27.625L34.5 31.375C34.75 31.5 35 31.625 35.25 31.625C35.5 31.625 35.625 31.625 35.875 31.5C36.25 31.25 36.5 30.875 36.5 30.375V17.75C36.5 17.25 36.25 16.875 35.875 16.625ZM26.5 30.25H14V17.75H26.5V22.75V25.25V30.25ZM34 27.875L29 24.5V23.375L34 20V27.875Z" fill="#333333"/>
</svg>
