<svg width="70" height="70" viewBox="0 0 70 70" fill="none" xmlns="http://www.w3.org/2000/svg">
<circle cx="35" cy="35" r="35" fill="#2F80ED"/>
<path d="M18.3333 23.3333C18.3333 21.4924 19.8256 20 21.6666 20H48.3333C50.1743 20 51.6666 21.4924 51.6666 23.3333V41.6667C51.6666 43.5077 50.1743 45 48.3333 45H36.6666V48.3333H41.6666C42.5871 48.3333 43.3333 49.0795 43.3333 50C43.3333 50.9205 42.5871 51.6667 41.6666 51.6667H28.3333C27.4128 51.6667 26.6666 50.9205 26.6666 50C26.6666 49.0795 27.4128 48.3333 28.3333 48.3333H33.3333V45H21.6666C19.8256 45 18.3333 43.5077 18.3333 41.6667V23.3333ZM48.3333 41.6667V23.3333H21.6666V41.6667H48.3333Z" fill="white"/>
</svg>
