<svg width="16" height="20" viewBox="0 0 16 20" fill="none" xmlns="http://www.w3.org/2000/svg">
<path d="M8 0C8.5523 0 9 0.44772 9 1V11.5858L11.2929 9.2929C11.6834 8.9024 12.3166 8.9024 12.7071 9.2929C13.0976 9.6834 13.0976 10.3166 12.7071 10.7071L8.7071 14.7071C8.3166 15.0976 7.6834 15.0976 7.2929 14.7071L3.29289 10.7071C2.90237 10.3166 2.90237 9.6834 3.29289 9.2929C3.68342 8.9024 4.31658 8.9024 4.70711 9.2929L7 11.5858V1C7 0.44772 7.4477 0 8 0ZM1 15C1.55228 15 2 15.4477 2 16V18H14V16C14 15.4477 14.4477 15 15 15C15.5523 15 16 15.4477 16 16V18C16 19.1046 15.1046 20 14 20H2C0.89543 20 0 19.1046 0 18V16C0 15.4477 0.44772 15 1 15Z" fill="white"/>
</svg>
