<svg width="48" height="48" viewBox="0 0 48 48" fill="none" xmlns="http://www.w3.org/2000/svg">
<rect width="48" height="48" rx="8" fill="#F2F2F2"/>
<path d="M22.75 14C19.9885 14 17.75 16.2386 17.75 19C17.75 19.0405 17.7506 19.0828 17.7516 19.1278C17.7652 19.7091 17.3762 20.223 16.8131 20.3677C15.1947 20.7836 14 22.2539 14 24C14 26.0711 15.679 27.75 17.75 27.75H19C19.6904 27.75 20.25 28.3096 20.25 29C20.25 29.6904 19.6904 30.25 19 30.25H17.75C14.2983 30.25 11.5 27.4517 11.5 24C11.5 21.4218 13.0603 19.2106 15.2866 18.2547C15.6607 14.4624 18.8593 11.5 22.75 11.5C25.5295 11.5 27.9536 13.0117 29.2487 15.2541C33.2759 15.3853 36.5 18.6911 36.5 22.75C36.5 26.8921 33.1423 30.25 29 30.25C28.3096 30.25 27.75 29.6904 27.75 29C27.75 28.3096 28.3096 27.75 29 27.75C31.7615 27.75 34 25.5114 34 22.75C34 19.9886 31.7615 17.75 29 17.75C28.8616 17.75 28.725 17.7556 28.5897 17.7665C28.0561 17.8097 27.5542 17.5082 27.3417 17.0169C26.573 15.2397 24.8049 14 22.75 14ZM23.1161 20.6161C23.6043 20.128 24.3957 20.128 24.8839 20.6161L27.3839 23.1161C27.872 23.6043 27.872 24.3957 27.3839 24.8839C26.8957 25.372 26.1043 25.372 25.6161 24.8839L25.25 24.5177V34C25.25 34.6904 24.6904 35.25 24 35.25C23.3096 35.25 22.75 34.6904 22.75 34V24.5177L22.3839 24.8839C21.8957 25.372 21.1043 25.372 20.6161 24.8839C20.128 24.3957 20.128 23.6043 20.6161 23.1161L23.1161 20.6161Z" fill="#333333"/>
</svg>
