<svg width="18" height="21" viewBox="0 0 18 21" fill="none" xmlns="http://www.w3.org/2000/svg">
<path d="M17.6999 14.5687C17.1468 13.6125 16.4812 11.7937 16.4812 8.57812V7.9125C16.4812 3.75938 13.1531 0.35625 9.05618 0.328125H8.99993C8.01624 0.329355 7.04244 0.524325 6.1341 0.901901C5.22577 1.27948 4.4007 1.83227 3.706 2.52871C3.0113 3.22515 2.46058 4.0516 2.08528 4.96087C1.70998 5.87015 1.51744 6.84444 1.51868 7.82812V8.57812C1.51868 11.7937 0.853051 13.6125 0.299926 14.5687C0.166155 14.7966 0.0949535 15.0558 0.0935277 15.32C0.0921019 15.5843 0.160502 15.8442 0.291807 16.0735C0.423111 16.3028 0.612659 16.4934 0.841269 16.6259C1.06988 16.7584 1.32944 16.8282 1.59368 16.8281H5.24993C5.24993 17.8227 5.64501 18.7765 6.34828 19.4798C7.05154 20.183 8.00536 20.5781 8.99993 20.5781C9.99449 20.5781 10.9483 20.183 11.6516 19.4798C12.3548 18.7765 12.7499 17.8227 12.7499 16.8281H16.4062C16.6704 16.8298 16.9303 16.7612 17.1592 16.6295C17.3882 16.4977 17.578 16.3074 17.7093 16.0781C17.8394 15.8475 17.907 15.587 17.9054 15.3222C17.9038 15.0574 17.8329 14.7977 17.6999 14.5687ZM8.99993 19.0781C8.40395 19.0757 7.83309 18.8378 7.41166 18.4164C6.99024 17.995 6.75239 17.4241 6.74993 16.8281H11.2499C11.2475 17.4241 11.0096 17.995 10.5882 18.4164C10.1668 18.8378 9.5959 19.0757 8.99993 19.0781Z" fill="#F2C94C"/>
</svg>
