<svg width="28" height="28" viewBox="0 0 28 28" fill="none" xmlns="http://www.w3.org/2000/svg">
<path d="M13.0826 2.11456C13.4308 1.31189 14.5692 1.31189 14.9174 2.11456L15.8178 4.19006C16.0741 4.78067 16.8135 4.9788 17.3307 4.59543L19.1482 3.24821C19.8512 2.7272 20.837 3.29636 20.7372 4.1656L20.4793 6.41325C20.4058 7.05285 20.9471 7.59415 21.5867 7.52075L23.8344 7.2628C24.7036 7.16304 25.2728 8.14885 24.7518 8.85176L23.4046 10.6693C23.0212 11.1865 23.2193 11.9259 23.8099 12.1822L25.8854 13.0826C26.6881 13.4308 26.6881 14.5692 25.8854 14.9174L23.8099 15.8178C23.2193 16.0741 23.0212 16.8135 23.4046 17.3307L24.7518 19.1482C25.2728 19.8512 24.7036 20.837 23.8344 20.7372L21.5867 20.4793C20.9471 20.4058 20.4058 20.9471 20.4793 21.5867L20.7372 23.8344C20.837 24.7036 19.8512 25.2728 19.1482 24.7518L17.3307 23.4046C16.8135 23.0212 16.0741 23.2193 15.8178 23.8099L14.9174 25.8854C14.5692 26.6881 13.4308 26.6881 13.0826 25.8854L12.1822 23.8099C11.9259 23.2193 11.1865 23.0212 10.6693 23.4046L8.85176 24.7518C8.14885 25.2728 7.16304 24.7036 7.2628 23.8344L7.52075 21.5867C7.59415 20.9471 7.05285 20.4058 6.41325 20.4793L4.1656 20.7372C3.29636 20.837 2.7272 19.8512 3.24821 19.1482L4.59543 17.3307C4.9788 16.8135 4.78067 16.0741 4.19006 15.8178L2.11456 14.9174C1.31189 14.5692 1.31189 13.4308 2.11456 13.0826L4.19006 12.1822C4.78067 11.9259 4.9788 11.1865 4.59543 10.6693L3.24821 8.85176C2.7272 8.14885 3.29635 7.16304 4.1656 7.2628L6.41325 7.52075C7.05285 7.59415 7.59415 7.05285 7.52075 6.41325L7.2628 4.1656C7.16304 3.29635 8.14885 2.7272 8.85176 3.24821L10.6693 4.59543C11.1865 4.9788 11.9259 4.78067 12.1822 4.19006L13.0826 2.11456Z" fill="#219653"/>
<g clip-path="url(#clip0_18_539)">
<path d="M17.8505 11.5498L12.9505 16.4498L10.5005 13.9998" stroke="white" stroke-width="1.125" stroke-linecap="round" stroke-linejoin="round"/>
</g>
<defs>
<clipPath id="clip0_18_539">
<rect width="11.2" height="11.2" fill="white" transform="translate(8.40039 8.3999)"/>
</clipPath>
</defs>
</svg>
