<svg width="18" height="18" viewBox="0 0 18 18" fill="none" xmlns="http://www.w3.org/2000/svg">
<path d="M9.00008 2.33341C5.31818 2.33341 2.33341 5.31818 2.33341 9.00008C2.33341 12.682 5.31818 15.6667 9.00008 15.6667C12.682 15.6667 15.6667 12.682 15.6667 9.00008C15.6667 5.31818 12.682 2.33341 9.00008 2.33341ZM0.666748 9.00008C0.666748 4.39771 4.39771 0.666748 9.00008 0.666748C13.6024 0.666748 17.3334 4.39771 17.3334 9.00008C17.3334 13.6024 13.6024 17.3334 9.00008 17.3334C4.39771 17.3334 0.666748 13.6024 0.666748 9.00008ZM9.00008 4.00008C9.46033 4.00008 9.83342 4.37318 9.83342 4.83342V8.65492L12.0893 10.9108C12.4147 11.2362 12.4147 11.7639 12.0893 12.0893C11.7639 12.4147 11.2362 12.4147 10.9108 12.0893L8.41083 9.58933C8.25458 9.43308 8.16675 9.22108 8.16675 9.00008V4.83342C8.16675 4.37318 8.53983 4.00008 9.00008 4.00008Z" fill="#533E85"/>
</svg>
