<svg width="28" height="28" viewBox="0 0 28 28" fill="none" xmlns="http://www.w3.org/2000/svg">
<path d="M6.072 3.05416L19.294 8.72016L14 10.9882L0.854 5.35416C1.15 5.05216 1.512 4.80816 1.924 4.65016L6.072 3.05416ZM8.748 2.02616L11.848 0.83416C13.2339 0.301374 14.7681 0.301374 16.154 0.83416L26.078 4.65016C26.488 4.81016 26.85 5.05016 27.146 5.35416L21.834 7.63016L8.748 2.02616ZM27.988 7.17016L15 12.7362V27.6362C15.3943 27.5697 15.7809 27.4638 16.154 27.3202L26.078 23.5022C26.6438 23.2843 27.1303 22.9002 27.4734 22.4003C27.8165 21.9005 28.0001 21.3084 28 20.7022V7.45016C28.0004 7.35664 27.9957 7.26317 27.986 7.17016H27.988ZM13 27.6362V12.7362L0.0139999 7.17016C0.00498694 7.26323 0.000315266 7.35666 0 7.45016V20.7022C8.0285e-05 21.3087 0.183985 21.9009 0.527462 22.4008C0.870939 22.9006 1.35786 23.2846 1.924 23.5022L11.846 27.3202C12.222 27.4642 12.608 27.5702 13 27.6362Z" fill="#EB5757"/>
</svg>
