<svg width="28" height="28" viewBox="0 0 28 28" fill="none" xmlns="http://www.w3.org/2000/svg">
<g clip-path="url(#clip0_172_353)">
<path d="M9.62501 8.23618C9.30038 7.90672 9.11841 7.46277 9.11841 7.00025C9.11841 6.53772 9.30038 6.09377 9.62501 5.76431L12.7641 2.62525C12.9258 2.46188 13.1183 2.3322 13.3304 2.24369C13.5426 2.15519 13.7701 2.10962 14 2.10962C14.2299 2.10962 14.4575 2.15519 14.6696 2.24369C14.8817 2.3322 15.0742 2.46188 15.2359 2.62525L18.375 5.76431C18.6996 6.09377 18.8816 6.53772 18.8816 7.00025C18.8816 7.46277 18.6996 7.90672 18.375 8.23618L15.2359 11.3752C15.0742 11.5386 14.8817 11.6683 14.6696 11.7568C14.4575 11.8453 14.2299 11.8909 14 11.8909C13.7701 11.8909 13.5426 11.8453 13.3304 11.7568C13.1183 11.6683 12.9258 11.5386 12.7641 11.3752L9.62501 8.23618ZM25.375 12.7643L22.2359 9.62525C22.0742 9.46188 21.8817 9.3322 21.6696 9.24369C21.4575 9.15519 21.2299 9.10962 21 9.10962C20.7701 9.10962 20.5426 9.15519 20.3304 9.24369C20.1183 9.3322 19.9258 9.46188 19.7641 9.62525L16.625 12.7643C16.3004 13.0938 16.1184 13.5377 16.1184 14.0002C16.1184 14.4628 16.3004 14.9067 16.625 15.2362L19.7641 18.3752C19.9258 18.5386 20.1183 18.6683 20.3304 18.7568C20.5426 18.8453 20.7701 18.8909 21 18.8909C21.2299 18.8909 21.4575 18.8453 21.6696 18.7568C21.8817 18.6683 22.0742 18.5386 22.2359 18.3752L25.375 15.2362C25.6996 14.9067 25.8816 14.4628 25.8816 14.0002C25.8816 13.5377 25.6996 13.0938 25.375 12.7643ZM11.375 12.7643L8.23595 9.62525C8.07424 9.46188 7.88174 9.3322 7.6696 9.24369C7.45746 9.15519 7.22987 9.10962 7.00001 9.10962C6.77014 9.10962 6.54256 9.15519 6.33042 9.24369C6.11828 9.3322 5.92578 9.46188 5.76407 9.62525L2.62501 12.7643C2.30038 13.0938 2.11841 13.5377 2.11841 14.0002C2.11841 14.4628 2.30038 14.9067 2.62501 15.2362L5.76407 18.3752C5.92578 18.5386 6.11828 18.6683 6.33042 18.7568C6.54256 18.8453 6.77014 18.8909 7.00001 18.8909C7.22987 18.8909 7.45746 18.8453 7.6696 18.7568C7.88174 18.6683 8.07424 18.5386 8.23595 18.3752L11.375 15.2362C11.6996 14.9067 11.8816 14.4628 11.8816 14.0002C11.8816 13.5377 11.6996 13.0938 11.375 12.7643ZM15.2359 16.6252C15.0742 16.4619 14.8817 16.3322 14.6696 16.2437C14.4575 16.1552 14.2299 16.1096 14 16.1096C13.7701 16.1096 13.5426 16.1552 13.3304 16.2437C13.1183 16.3322 12.9258 16.4619 12.7641 16.6252L9.62501 19.7643C9.30038 20.0938 9.11841 20.5377 9.11841 21.0002C9.11841 21.4628 9.30038 21.9067 9.62501 22.2362L12.7641 25.3752C12.9258 25.5386 13.1183 25.6683 13.3304 25.7568C13.5426 25.8453 13.7701 25.8909 14 25.8909C14.2299 25.8909 14.4575 25.8453 14.6696 25.7568C14.8817 25.6683 15.0742 25.5386 15.2359 25.3752L18.375 22.2362C18.6996 21.9067 18.8816 21.4628 18.8816 21.0002C18.8816 20.5377 18.6996 20.0938 18.375 19.7643L15.2359 16.6252Z" fill="#333333"/>
</g>
<defs>
<clipPath id="clip0_172_353">
<rect width="28" height="28" fill="white"/>
</clipPath>
</defs>
</svg>
