<svg width="32" height="48" viewBox="0 0 32 48" fill="none" xmlns="http://www.w3.org/2000/svg">
<path d="M9.99994 47.48C9.70001 47.4835 9.40404 47.4113 9.13951 47.2698C8.87499 47.1284 8.6505 46.9224 8.48689 46.671C8.32327 46.4196 8.22585 46.1309 8.20365 45.8318C8.18146 45.5327 8.23522 45.2328 8.35995 44.96L13.1599 34.18H7.67995C7.34394 34.1791 7.01488 34.0842 6.73003 33.9059C6.44517 33.7277 6.21588 33.4733 6.06812 33.1716C5.92035 32.8698 5.86 32.5327 5.89391 32.1984C5.92781 31.8641 6.0546 31.5459 6.25995 31.28L14.5599 20.38C14.8675 20.047 15.2883 19.8407 15.7399 19.8016C16.1915 19.7625 16.6415 19.8933 17.0017 20.1685C17.362 20.4437 17.6066 20.8434 17.6876 21.2894C17.7687 21.7354 17.6803 22.1956 17.4399 22.58L11.3199 30.58H15.9999C16.3011 30.5818 16.5971 30.6576 16.8621 30.8006C17.1271 30.9435 17.353 31.1494 17.5199 31.4C17.6806 31.6544 17.7756 31.9447 17.7965 32.2449C17.8175 32.545 17.7637 32.8457 17.6399 33.12L15.9999 37L27.4599 25.1L3.77994 5.99997V45.4C3.77994 45.8774 3.5903 46.3352 3.25274 46.6728C2.91517 47.0103 2.45733 47.2 1.97994 47.2C1.50255 47.2 1.04472 47.0103 0.707153 46.6728C0.369587 46.3352 0.179945 45.8774 0.179945 45.4V2.31997C0.178612 1.97861 0.274373 1.64391 0.456055 1.35492C0.637738 1.06593 0.897852 0.834553 1.20605 0.687792C1.51425 0.54103 1.85783 0.484932 2.1967 0.526041C2.53558 0.56715 2.85578 0.703773 3.11995 0.919969L31.1199 23.52C31.4957 23.8548 31.7313 24.319 31.7799 24.82C31.7954 25.0689 31.7589 25.3184 31.6728 25.5525C31.5868 25.7866 31.453 26.0003 31.2799 26.18L11.2799 46.94C10.9415 47.2821 10.4812 47.4763 9.99994 47.48Z" fill="white"/>
</svg>
