<svg width="32" height="32" viewBox="0 0 32 32" fill="none" xmlns="http://www.w3.org/2000/svg">
<g clip-path="url(#clip0_180_384)">
<path d="M15.1503 19.7374C16.4919 18.8462 17.511 17.5466 18.0567 16.0311C18.6024 14.5157 18.6457 12.8648 18.1802 11.3227C17.7147 9.78074 16.7652 8.42957 15.472 7.46918C14.1789 6.5088 12.611 5.99023 11.0003 5.99023C9.38952 5.99023 7.82158 6.5088 6.52847 7.46918C5.23535 8.42957 4.28579 9.78074 3.82029 11.3227C3.35479 12.8648 3.39809 14.5157 3.94378 16.0311C4.48948 17.5466 5.50858 18.8462 6.85026 19.7374C4.56147 20.5791 2.58536 22.1015 1.18776 24.0999C1.07859 24.2482 1.01361 24.4242 1.00034 24.6078C0.987068 24.7914 1.02604 24.9751 1.11276 25.1374C1.19845 25.2987 1.32618 25.4339 1.48242 25.5285C1.63867 25.6231 1.8176 25.6737 2.00026 25.6749H20.0003C20.1829 25.6737 20.3618 25.6231 20.5181 25.5285C20.6743 25.4339 20.8021 25.2987 20.8878 25.1374C20.9745 24.9751 21.0134 24.7914 21.0002 24.6078C20.9869 24.4242 20.9219 24.2482 20.8128 24.0999C19.4152 22.1015 17.439 20.5791 15.1503 19.7374Z" fill="#2F80ED"/>
<path d="M31.0126 24.1C29.6071 22.1041 27.6279 20.5826 25.3376 19.7375C26.6835 18.8497 27.7069 17.551 28.2554 16.0348C28.804 14.5185 28.8484 12.8657 28.3821 11.3222C27.9159 9.77871 26.9638 8.42695 25.6675 7.46802C24.3712 6.5091 22.8 5.99425 21.1876 6.00005C20.4994 6.0037 19.8146 6.09613 19.1501 6.27505C18.994 6.32193 18.8514 6.40535 18.734 6.5184C18.6166 6.63144 18.5278 6.77085 18.4751 6.92505C18.4248 7.07799 18.4122 7.24081 18.4383 7.39968C18.4644 7.55855 18.5285 7.70876 18.6251 7.83755C19.7556 9.35651 20.4051 11.1794 20.4898 13.071C20.5744 14.9626 20.0904 16.8362 19.1001 18.45C18.9731 18.6645 18.9297 18.9182 18.9781 19.1627C19.0265 19.4072 19.1634 19.6252 19.3626 19.775C19.7376 20.0667 20.1001 20.3667 20.4501 20.675L20.5126 20.7375C21.8469 21.9722 22.9293 23.4537 23.7001 25.1C23.7792 25.2721 23.9061 25.4178 24.0657 25.5197C24.2252 25.6217 24.4108 25.6756 24.6001 25.675H30.1876C30.3703 25.6738 30.5492 25.6232 30.7054 25.5286C30.8617 25.434 30.9894 25.2989 31.0751 25.1375C31.1608 24.9755 31.2003 24.793 31.1892 24.61C31.1782 24.4271 31.1171 24.2506 31.0126 24.1Z" fill="#2F80ED"/>
</g>
<defs>
<clipPath id="clip0_180_384">
<rect width="32" height="32" fill="white"/>
</clipPath>
</defs>
</svg>
