<svg width="20" height="18" viewBox="0 0 20 18" fill="none" xmlns="http://www.w3.org/2000/svg">
<path d="M3.9999 2.4001C3.9999 1.92271 4.18954 1.46487 4.52711 1.12731C4.86468 0.78974 5.32251 0.600098 5.7999 0.600098H14.1999C14.6773 0.600098 15.1351 0.78974 15.4727 1.12731C15.8103 1.46487 15.9999 1.92271 15.9999 2.4001V3.0001H16.5999C17.3956 3.0001 18.1586 3.31617 18.7212 3.87878C19.2838 4.44139 19.5999 5.20445 19.5999 6.0001V12.0001C19.5999 12.4775 19.4103 12.9353 19.0727 13.2729C18.7351 13.6105 18.2773 13.8001 17.7999 13.8001H15.9999V15.6001C15.9999 16.0775 15.8103 16.5353 15.4727 16.8729C15.1351 17.2105 14.6773 17.4001 14.1999 17.4001H5.7999C5.32251 17.4001 4.86468 17.2105 4.52711 16.8729C4.18954 16.5353 3.9999 16.0775 3.9999 15.6001V13.8001H2.1999C1.72251 13.8001 1.26468 13.6105 0.92711 13.2729C0.589545 12.9353 0.399902 12.4775 0.399902 12.0001V6.0001C0.399902 5.20445 0.715973 4.44139 1.27858 3.87878C1.84119 3.31617 2.60425 3.0001 3.3999 3.0001H3.9999V2.4001ZM14.7999 2.4001C14.7999 2.24097 14.7367 2.08836 14.6242 1.97583C14.5116 1.86331 14.359 1.8001 14.1999 1.8001H5.7999C5.64077 1.8001 5.48816 1.86331 5.37564 1.97583C5.26312 2.08836 5.1999 2.24097 5.1999 2.4001V3.0001H14.7999V2.4001ZM5.1999 10.8001V15.6001C5.1999 15.7592 5.26312 15.9118 5.37564 16.0244C5.48816 16.1369 5.64077 16.2001 5.7999 16.2001H14.1999C14.359 16.2001 14.5116 16.1369 14.6242 16.0244C14.7367 15.9118 14.7999 15.7592 14.7999 15.6001V10.8001C14.7999 10.641 14.7367 10.4884 14.6242 10.3758C14.5116 10.2633 14.359 10.2001 14.1999 10.2001H5.7999C5.64077 10.2001 5.48816 10.2633 5.37564 10.3758C5.26312 10.4884 5.1999 10.641 5.1999 10.8001Z" fill="#4F4F4F"/>
</svg>
