<svg width="22" height="22" viewBox="0 0 22 22" fill="none" xmlns="http://www.w3.org/2000/svg">
<path d="M15.7143 17.2857H6.28571C5.86895 17.2857 5.46925 17.1202 5.17455 16.8255C4.87985 16.5308 4.71429 16.1311 4.71429 15.7143V13.3571H6.28571V15.7143H15.7143V13.3571H17.2857V15.7143C17.2857 16.1311 17.1202 16.5308 16.8255 16.8255C16.5308 17.1202 16.1311 17.2857 15.7143 17.2857ZM0 10.2143H22V11.7857H0V10.2143ZM17.2857 8.64286H15.7143V6.28571H6.28571V8.64286H4.71429V6.28571C4.71429 5.86895 4.87985 5.46925 5.17455 5.17455C5.46925 4.87985 5.86895 4.71429 6.28571 4.71429H15.7143C16.1311 4.71429 16.5308 4.87985 16.8255 5.17455C17.1202 5.46925 17.2857 5.86895 17.2857 6.28571V8.64286ZM22 6.28571H20.4286V1.57143H15.7143V0H22V6.28571ZM1.57143 6.28571H0V0H6.28571V1.57143H1.57143V6.28571ZM6.28571 22H0V15.7143H1.57143V20.4286H6.28571V22ZM22 22H15.7143V20.4286H20.4286V15.7143H22V22Z" fill="white"/>
</svg>
