<svg width="131" height="30" viewBox="0 0 131 30" fill="none" xmlns="http://www.w3.org/2000/svg">
<path d="M20.2578 5.69531C20.2344 5.80469 20.1836 5.89062 20.1055 5.95312C20.0273 6.01562 19.9414 6.04688 19.8477 6.04688C19.707 6.04688 19.5938 6.00391 19.5078 5.91797C19.4219 5.82422 19.3789 5.71875 19.3789 5.60156C19.3789 5.48438 19.3906 5.37109 19.4141 5.26172C19.4375 5.14453 19.4492 5.03125 19.4492 4.92188C19.4492 4.35156 19.2734 3.83984 18.9219 3.38672C18.5703 2.93359 18.0703 2.55469 17.4219 2.25C16.7812 1.9375 16 1.69922 15.0781 1.53516C14.1562 1.37109 13.1289 1.28906 11.9961 1.28906C11.1289 1.28906 10.2539 1.34766 9.37109 1.46484C8.49609 1.57422 7.65234 1.73828 6.83984 1.95703C6.03516 2.16797 5.28125 2.4375 4.57812 2.76562C3.875 3.08594 3.26172 3.46094 2.73828 3.89062C2.22266 4.3125 1.81641 4.78516 1.51953 5.30859C1.22266 5.82422 1.07422 6.39062 1.07422 7.00781C1.07422 7.48438 1.17578 7.90625 1.37891 8.27344C1.58984 8.63281 1.875 8.94922 2.23438 9.22266C2.59375 9.48828 3.01562 9.71875 3.5 9.91406C3.99219 10.1016 4.52344 10.2617 5.09375 10.3945C5.66406 10.5195 6.25781 10.625 6.875 10.7109C7.49219 10.7891 8.11328 10.8555 8.73828 10.9102L10.543 11.0625C11.4414 11.1406 12.2461 11.2227 12.957 11.3086C13.668 11.3945 14.293 11.5039 14.832 11.6367C15.7305 11.8633 16.3945 12.1875 16.8242 12.6094C17.2539 13.0312 17.4688 13.5938 17.4688 14.2969C17.4688 14.9766 17.2812 15.5742 16.9062 16.0898C16.5312 16.6055 16.0195 17.0391 15.3711 17.3906C14.7227 17.7422 13.9648 18.0078 13.0977 18.1875C12.2305 18.3672 11.3008 18.457 10.3086 18.457C9.23047 18.457 8.28125 18.3828 7.46094 18.2344C6.64844 18.0938 5.96484 17.9375 5.41016 17.7656C4.86328 17.5859 4.44531 17.4219 4.15625 17.2734C3.86719 17.125 3.71094 17.043 3.6875 17.0273C3.54688 16.9492 3.47656 16.8242 3.47656 16.6523C3.47656 16.5195 3.52344 16.4141 3.61719 16.3359C3.71094 16.25 3.8125 16.207 3.92188 16.207C4.00781 16.207 4.08594 16.2305 4.15625 16.2773C4.16406 16.2773 4.29688 16.3477 4.55469 16.4883C4.82031 16.6211 5.21094 16.7695 5.72656 16.9336C6.25 17.0977 6.89453 17.2461 7.66016 17.3789C8.42578 17.5117 9.31641 17.5781 10.332 17.5781C11.3398 17.5781 12.2305 17.4961 13.0039 17.332C13.7773 17.168 14.4258 16.9414 14.9492 16.6523C15.4805 16.3555 15.8789 16.0117 16.1445 15.6211C16.418 15.2227 16.5547 14.793 16.5547 14.332C16.5547 14.0586 16.5039 13.8242 16.4023 13.6289C16.3086 13.4258 16.1758 13.2539 16.0039 13.1133C15.832 12.9648 15.625 12.8398 15.3828 12.7383C15.1484 12.6367 14.8906 12.5508 14.6094 12.4805C14.3125 12.4023 13.9922 12.3359 13.6484 12.2812C13.3125 12.2266 12.9648 12.1797 12.6055 12.1406C12.2461 12.1016 11.8828 12.0664 11.5156 12.0352C11.1562 12.0039 10.8008 11.9727 10.4492 11.9414L8.64453 11.7891C7.22266 11.6719 5.98047 11.4922 4.91797 11.25C3.86328 11 2.98438 10.6836 2.28125 10.3008C1.57812 9.91016 1.05078 9.44531 0.699219 8.90625C0.347656 8.36719 0.171875 7.73828 0.171875 7.01953C0.171875 6.28516 0.335938 5.61328 0.664062 5.00391C1 4.38672 1.45312 3.83203 2.02344 3.33984C2.60156 2.84766 3.27344 2.42188 4.03906 2.0625C4.8125 1.69531 5.63672 1.39063 6.51172 1.14844C7.38672 0.90625 8.29297 0.726562 9.23047 0.609375C10.168 0.484375 11.0898 0.421875 11.9961 0.421875C13.1289 0.421875 14.1133 0.492188 14.9492 0.632812C15.793 0.765625 16.5117 0.941406 17.1055 1.16016C17.707 1.37109 18.1992 1.61328 18.582 1.88672C18.9648 2.16016 19.2734 2.42969 19.5078 2.69531C20.0625 3.34375 20.3398 4.08203 20.3398 4.91016C20.3398 5.18359 20.3125 5.44531 20.2578 5.69531ZM21.6523 17.0039C21.7773 16.7383 21.9219 16.4531 22.0859 16.1484C22.25 15.8359 22.4258 15.5195 22.6133 15.1992C22.8008 14.8711 23 14.5469 23.2109 14.2266C23.4219 13.9062 23.6406 13.6055 23.8672 13.3242C24.0938 13.0508 24.3203 12.8555 24.5469 12.7383C24.7812 12.6133 25 12.5508 25.2031 12.5508C25.4062 12.5508 25.582 12.5938 25.7305 12.6797C25.8867 12.7578 26.0117 12.8672 26.1055 13.0078C26.207 13.1484 26.2812 13.3125 26.3281 13.5C26.3828 13.6875 26.4102 13.8906 26.4102 14.1094C26.4102 14.2891 26.3906 14.5312 26.3516 14.8359C26.3203 15.1328 26.3047 15.4453 26.3047 15.7734C26.3047 15.9609 26.3125 16.1484 26.3281 16.3359C26.3516 16.5156 26.3867 16.6797 26.4336 16.8281C26.4883 16.9688 26.5664 17.0859 26.668 17.1797C26.7695 17.2656 26.9023 17.3086 27.0664 17.3086C27.2539 17.3086 27.4414 17.2578 27.6289 17.1562C27.8164 17.0469 28 16.9062 28.1797 16.7344C28.3594 16.5547 28.5312 16.3594 28.6953 16.1484C28.8594 15.9297 29.0078 15.7148 29.1406 15.5039C29.2734 15.2852 29.3906 15.0781 29.4922 14.8828C29.5938 14.6797 29.6758 14.5117 29.7383 14.3789C29.8164 14.1992 29.9531 14.1094 30.1484 14.1094C30.2812 14.1094 30.3867 14.1562 30.4648 14.25C30.543 14.3438 30.582 14.4453 30.582 14.5547C30.582 14.6172 30.5703 14.6758 30.5469 14.7305C30.5156 14.793 30.4531 14.9219 30.3594 15.1172C30.2734 15.3125 30.1523 15.5391 29.9961 15.7969C29.8477 16.0547 29.6719 16.3242 29.4688 16.6055C29.2656 16.8867 29.0391 17.1484 28.7891 17.3906C28.5469 17.625 28.2812 17.8203 27.9922 17.9766C27.7109 18.125 27.4141 18.1992 27.1016 18.1992C26.7422 18.1992 26.4531 18.125 26.2344 17.9766C26.0156 17.8203 25.8438 17.625 25.7188 17.3906C25.6016 17.1562 25.5195 16.8945 25.4727 16.6055C25.4336 16.3164 25.4141 16.0352 25.4141 15.7617C25.4141 15.6211 25.418 15.4727 25.4258 15.3164C25.4414 15.1523 25.457 14.9922 25.4727 14.8359C25.4883 14.6797 25.5 14.5352 25.5078 14.4023C25.5234 14.2617 25.5312 14.1445 25.5312 14.0508C25.5312 13.8086 25.4961 13.6445 25.4258 13.5586C25.3633 13.4727 25.2891 13.4297 25.2031 13.4297C25.0781 13.4297 24.9336 13.5039 24.7695 13.6523C24.6133 13.793 24.4453 13.9805 24.2656 14.2148C24.0938 14.4492 23.918 14.7148 23.7383 15.0117C23.5664 15.3008 23.3984 15.5898 23.2344 15.8789C23.0703 16.168 22.9219 16.4453 22.7891 16.7109C22.6562 16.9688 22.5469 17.1836 22.4609 17.3555C22.2969 17.6836 22.1289 17.9023 21.957 18.0117C21.793 18.1289 21.6445 18.1875 21.5117 18.1875C21.2695 18.1875 21.082 18.0938 20.9492 17.9062C20.8242 17.7109 20.7617 17.4766 20.7617 17.2031V16.4648C20.7617 14.9883 20.7617 13.582 20.7617 12.2461C20.7695 10.9023 20.7891 9.65625 20.8203 8.50781C20.8594 7.35156 20.918 6.30859 20.9961 5.37891C21.082 4.44141 21.207 3.64453 21.3711 2.98828C21.5352 2.32422 21.7422 1.8125 21.9922 1.45312C22.25 1.09375 22.5703 0.914062 22.9531 0.914062C23.2812 0.914062 23.5586 1.00391 23.7852 1.18359C24.0117 1.36328 24.1953 1.60937 24.3359 1.92188C24.4766 2.22656 24.5781 2.58594 24.6406 3C24.7031 3.40625 24.7344 3.83594 24.7344 4.28906C24.7344 5.21094 24.6484 6.11719 24.4766 7.00781C24.3125 7.89062 24.0898 8.75391 23.8086 9.59766C23.5273 10.4414 23.1992 11.2656 22.8242 12.0703C22.4492 12.8672 22.0547 13.6445 21.6406 14.4023C21.6406 14.543 21.6406 14.7109 21.6406 14.9062C21.6406 15.1016 21.6406 15.2969 21.6406 15.4922C21.6406 15.6875 21.6406 15.8711 21.6406 16.043C21.6406 16.2148 21.6406 16.3516 21.6406 16.4531L21.6523 17.0039ZM21.6523 12.6797C21.9805 11.9609 22.2773 11.2617 22.543 10.582C22.8164 9.89453 23.0469 9.21094 23.2344 8.53125C23.4297 7.85156 23.582 7.16406 23.6914 6.46875C23.8008 5.76562 23.8555 5.03516 23.8555 4.27734C23.8555 4.15234 23.8477 3.95312 23.832 3.67969C23.8242 3.40625 23.7891 3.12891 23.7266 2.84766C23.6719 2.56641 23.582 2.32031 23.457 2.10938C23.3398 1.89844 23.1719 1.79297 22.9531 1.79297C22.7812 1.79297 22.6328 1.91016 22.5078 2.14453C22.3828 2.37109 22.2734 2.68359 22.1797 3.08203C22.0859 3.47266 22.0078 3.92969 21.9453 4.45312C21.8828 4.97656 21.832 5.53125 21.793 6.11719C21.7539 6.70312 21.7227 7.30469 21.6992 7.92188C21.6836 8.53906 21.6719 9.14062 21.6641 9.72656C21.6562 10.3047 21.6523 10.8477 21.6523 11.3555C21.6523 11.8633 21.6523 12.3047 21.6523 12.6797ZM38.8086 14.7305C38.7773 14.793 38.7109 14.9258 38.6094 15.1289C38.5156 15.3242 38.3906 15.5508 38.2344 15.8086C38.0859 16.0664 37.9102 16.3359 37.707 16.6172C37.5039 16.8984 37.2773 17.1562 37.0273 17.3906C36.7773 17.625 36.5078 17.8203 36.2188 17.9766C35.9297 18.125 35.625 18.1992 35.3047 18.1992C34.8516 18.1992 34.4688 18.0547 34.1562 17.7656C33.8516 17.4766 33.6289 17.1133 33.4883 16.6758C33.2227 17.1211 32.9062 17.4766 32.5391 17.7422C32.1719 18 31.8047 18.1289 31.4375 18.1289C31.1484 18.1289 30.8867 18.0781 30.6523 17.9766C30.418 17.8672 30.2188 17.7188 30.0547 17.5312C29.8906 17.3359 29.7617 17.1094 29.668 16.8516C29.582 16.5938 29.5391 16.3125 29.5391 16.0078C29.5391 15.3984 29.6406 14.8633 29.8438 14.4023C30.0547 13.9336 30.3203 13.543 30.6406 13.2305C30.9609 12.918 31.3125 12.6836 31.6953 12.5273C32.0859 12.3711 32.4609 12.293 32.8203 12.293C33.0625 12.293 33.2852 12.3281 33.4883 12.3984C33.6914 12.4609 33.8633 12.5312 34.0039 12.6094C34.1523 12.6875 34.2656 12.7617 34.3438 12.832C34.4219 12.8945 34.4648 12.9297 34.4727 12.9375C34.5586 13.0391 34.6016 13.1445 34.6016 13.2539C34.6016 13.3711 34.5586 13.4766 34.4727 13.5703C34.3867 13.6562 34.2852 13.6992 34.168 13.6992C34.043 13.6992 33.9375 13.6562 33.8516 13.5703C33.8359 13.5547 33.8008 13.5273 33.7461 13.4883C33.6914 13.4414 33.6172 13.3945 33.5234 13.3477C33.4297 13.3008 33.3164 13.2617 33.1836 13.2305C33.0586 13.1914 32.9141 13.1719 32.75 13.1719C32.5078 13.1719 32.25 13.2266 31.9766 13.3359C31.7031 13.4453 31.4531 13.6172 31.2266 13.8516C31 14.0781 30.8086 14.3672 30.6523 14.7188C30.5039 15.0625 30.4297 15.4727 30.4297 15.9492C30.4297 16.0977 30.4453 16.25 30.4766 16.4062C30.5078 16.5547 30.5625 16.6914 30.6406 16.8164C30.7188 16.9414 30.8242 17.043 30.957 17.1211C31.0898 17.1992 31.2539 17.2383 31.4492 17.2383C31.5898 17.2383 31.75 17.1914 31.9297 17.0977C32.1172 17.0039 32.293 16.8594 32.457 16.6641C32.6289 16.4688 32.7812 16.2227 32.9141 15.9258C33.0547 15.6289 33.1523 15.2773 33.207 14.8711C33.2227 14.7617 33.2734 14.6719 33.3594 14.6016C33.4453 14.5234 33.5469 14.4844 33.6641 14.4844C33.7734 14.4844 33.8672 14.5273 33.9453 14.6133C34.0312 14.6992 34.0781 14.7969 34.0859 14.9062C34.0938 15.0547 34.1094 15.2656 34.1328 15.5391C34.1562 15.8047 34.207 16.0703 34.2852 16.3359C34.3711 16.6016 34.4961 16.832 34.6602 17.0273C34.8242 17.2227 35.0508 17.3203 35.3398 17.3203C35.5273 17.3203 35.7109 17.2695 35.8906 17.168C36.0781 17.0664 36.2578 16.9336 36.4297 16.7695C36.6094 16.5977 36.7773 16.4062 36.9336 16.1953C37.0977 15.9766 37.2461 15.7578 37.3789 15.5391C37.5117 15.3203 37.6289 15.1094 37.7305 14.9062C37.832 14.7031 37.918 14.5273 37.9883 14.3789C38.0273 14.293 38.082 14.2266 38.1523 14.1797C38.2305 14.1328 38.3125 14.1094 38.3984 14.1094C38.5312 14.1094 38.6367 14.1602 38.7148 14.2617C38.8008 14.3555 38.8438 14.457 38.8438 14.5664C38.8438 14.6211 38.832 14.6758 38.8086 14.7305ZM38.9141 18.5742C39.4922 18.3164 40.0156 18.0195 40.4844 17.6836C40.9609 17.3477 41.3828 16.9961 41.75 16.6289C42.125 16.2539 42.4414 15.875 42.6992 15.4922C42.9648 15.1016 43.1758 14.7305 43.332 14.3789C43.3398 14.3633 43.3438 14.3516 43.3438 14.3438C43.3516 14.3281 43.3633 14.3125 43.3789 14.2969C43.4102 13.6406 43.4688 12.9766 43.5547 12.3047C43.5703 12.1953 43.6172 12.1016 43.6953 12.0234C43.7812 11.9375 43.8906 11.8945 44.0234 11.8945C44.1406 11.8945 44.2383 11.9414 44.3164 12.0352C44.3945 12.1211 44.4336 12.2227 44.4336 12.3398C44.4336 12.3867 44.4219 12.5273 44.3984 12.7617C44.3828 12.9961 44.3594 13.2773 44.3281 13.6055C44.3047 13.9258 44.2812 14.2695 44.2578 14.6367C44.2422 14.9961 44.2344 15.3281 44.2344 15.6328C44.2344 16.0469 44.2734 16.3828 44.3516 16.6406C44.4375 16.8906 44.543 17.0859 44.668 17.2266C44.8008 17.3672 44.9375 17.4609 45.0781 17.5078C45.2266 17.5547 45.3672 17.5781 45.5 17.5781C45.7188 17.5781 45.9453 17.5 46.1797 17.3438C46.4141 17.1875 46.6523 16.9688 46.8945 16.6875C47.1445 16.4062 47.3945 16.0703 47.6445 15.6797C47.8945 15.2812 48.1406 14.8398 48.3828 14.3555C48.4219 14.2773 48.4766 14.2188 48.5469 14.1797C48.6172 14.1328 48.6953 14.1094 48.7812 14.1094C48.9062 14.1094 49.0078 14.1562 49.0859 14.25C49.1719 14.3438 49.2148 14.4453 49.2148 14.5547C49.2148 14.6328 49.1992 14.6992 49.168 14.7539C49.0742 14.9336 48.957 15.1523 48.8164 15.4102C48.6758 15.668 48.5156 15.9336 48.3359 16.207C48.1562 16.4805 47.957 16.7539 47.7383 17.0273C47.5273 17.293 47.3008 17.5352 47.0586 17.7539C46.8164 17.9648 46.5625 18.1367 46.2969 18.2695C46.0312 18.4023 45.7617 18.4688 45.4883 18.4688C45.168 18.4688 44.8828 18.4062 44.6328 18.2812C44.3828 18.1641 44.168 18 43.9883 17.7891C43.8164 17.5781 43.6758 17.3281 43.5664 17.0391C43.4648 16.75 43.3984 16.4375 43.3672 16.1016C42.9609 16.6875 42.4375 17.2539 41.7969 17.8008C41.1641 18.3477 40.3789 18.8398 39.4414 19.2773C39.8633 19.7148 40.2305 20.1992 40.543 20.7305C40.8555 21.2695 41.1133 21.8281 41.3164 22.4062C41.5273 22.9844 41.6836 23.5664 41.7852 24.1523C41.8945 24.7461 41.9492 25.3125 41.9492 25.8516C41.9492 26.3438 41.9023 26.8047 41.8086 27.2344C41.7227 27.6719 41.5898 28.0508 41.4102 28.3711C41.2383 28.6914 41.0273 28.9414 40.7773 29.1211C40.5273 29.3086 40.2422 29.4023 39.9219 29.4023C39.4531 29.4023 39.0898 29.2266 38.832 28.875C38.5742 28.5312 38.3828 28.0508 38.2578 27.4336C38.1406 26.8242 38.0703 26.1016 38.0469 25.2656C38.0312 24.4375 38.0234 23.5352 38.0234 22.5586C38.0234 22.0742 38.0234 21.5078 38.0234 20.8594C38.0234 20.2188 38.0234 19.5273 38.0234 18.7852C38.0312 18.0508 38.0352 17.2812 38.0352 16.4766C38.043 15.6641 38.0508 14.8516 38.0586 14.0391C38.0664 13.2266 38.0742 12.4297 38.082 11.6484C38.0898 10.8594 38.1016 10.1133 38.1172 9.41016C38.1406 8.06641 38.1875 6.86719 38.2578 5.8125C38.3281 4.75781 38.4414 3.86719 38.5977 3.14062C38.7539 2.41406 38.9648 1.86328 39.2305 1.48828C39.5039 1.10547 39.8477 0.914062 40.2617 0.914062C40.5898 0.914062 40.8672 1.00781 41.0938 1.19531C41.3203 1.375 41.5039 1.62109 41.6445 1.93359C41.7852 2.23828 41.8867 2.59766 41.9492 3.01172C42.0117 3.42578 42.043 3.85937 42.043 4.3125C42.043 5.26562 41.9609 6.1875 41.7969 7.07812C41.6328 7.96875 41.4102 8.83203 41.1289 9.66797C40.8477 10.5039 40.5156 11.3203 40.1328 12.1172C39.7578 12.9141 39.3555 13.6992 38.9258 14.4727C38.9258 14.793 38.9258 15.1406 38.9258 15.5156C38.9258 15.8828 38.9258 16.2539 38.9258 16.6289C38.9258 16.9961 38.9219 17.3516 38.9141 17.6953C38.9141 18.0312 38.9141 18.3242 38.9141 18.5742ZM38.9492 12.668C39.2695 12.0664 39.5625 11.4336 39.8281 10.7695C40.1016 10.0977 40.3359 9.40625 40.5312 8.69531C40.7266 7.98438 40.8789 7.25781 40.9883 6.51562C41.0977 5.77344 41.1523 5.02734 41.1523 4.27734C41.1523 3.90234 41.1328 3.5625 41.0938 3.25781C41.0625 2.95312 41.0078 2.69531 40.9297 2.48438C40.8594 2.26562 40.7656 2.09766 40.6484 1.98047C40.5391 1.85547 40.4102 1.79297 40.2617 1.79297C40.1055 1.79297 39.9688 1.88672 39.8516 2.07422C39.7344 2.26172 39.6328 2.51172 39.5469 2.82422C39.4609 3.13672 39.3867 3.49609 39.3242 3.90234C39.2695 4.30859 39.2227 4.73438 39.1836 5.17969C39.1445 5.61719 39.1133 6.05859 39.0898 6.50391C39.0664 6.94141 39.0469 7.35547 39.0312 7.74609C39.0234 8.12891 39.0156 8.46875 39.0078 8.76562C39.0078 9.0625 39.0078 9.28516 39.0078 9.43359C39 9.74609 38.9922 10.0234 38.9844 10.2656C38.9844 10.5078 38.9805 10.7461 38.9727 10.9805C38.9648 11.2148 38.957 11.4648 38.9492 11.7305C38.9492 11.9961 38.9492 12.3086 38.9492 12.668ZM38.9141 20.0156C38.9141 20.5078 38.9102 20.9648 38.9023 21.3867C38.9023 21.8164 38.9023 22.207 38.9023 22.5586C38.9023 23.2852 38.9062 24.0039 38.9141 24.7148C38.9219 25.4258 38.957 26.0625 39.0195 26.625C39.0898 27.1953 39.1914 27.6523 39.3242 27.9961C39.4648 28.3477 39.6641 28.5234 39.9219 28.5234C40.1562 28.5234 40.3477 28.418 40.4961 28.207C40.6445 27.9961 40.7578 27.7461 40.8359 27.457C40.9219 27.168 40.9805 26.8711 41.0117 26.5664C41.043 26.2695 41.0586 26.0273 41.0586 25.8398C41.0586 25.3633 41.0117 24.8633 40.918 24.3398C40.832 23.8164 40.6953 23.2969 40.5078 22.7812C40.3281 22.2734 40.1055 21.7812 39.8398 21.3047C39.5742 20.8281 39.2656 20.3984 38.9141 20.0156ZM45.2422 8.80078C45.2422 9.09766 45.1367 9.35156 44.9258 9.5625C44.7227 9.76562 44.4727 9.86719 44.1758 9.86719C43.8789 9.86719 43.625 9.76562 43.4141 9.5625C43.2109 9.35156 43.1094 9.09766 43.1094 8.80078C43.1094 8.65234 43.1367 8.51562 43.1914 8.39062C43.2461 8.25781 43.3203 8.14453 43.4141 8.05078C43.5156 7.94922 43.6289 7.87109 43.7539 7.81641C43.8867 7.76172 44.0273 7.73438 44.1758 7.73438C44.3242 7.73438 44.4609 7.76172 44.5859 7.81641C44.7188 7.87109 44.832 7.94922 44.9258 8.05078C45.0273 8.14453 45.1055 8.25781 45.1602 8.39062C45.2148 8.51562 45.2422 8.65234 45.2422 8.80078ZM44.5859 8.80078C44.5859 8.69141 44.543 8.59766 44.457 8.51953C44.3789 8.43359 44.2852 8.39062 44.1758 8.39062C44.0664 8.39062 43.9727 8.43359 43.8945 8.51953C43.8164 8.59766 43.7773 8.69141 43.7773 8.80078C43.7773 8.91016 43.8164 9.00391 43.8945 9.08203C43.9727 9.16016 44.0664 9.19922 44.1758 9.19922C44.2852 9.19922 44.3789 9.16016 44.457 9.08203C44.543 9.00391 44.5859 8.91016 44.5859 8.80078ZM50.9844 16.9453C51.1094 16.6875 51.2539 16.4062 51.418 16.1016C51.582 15.7891 51.7578 15.4766 51.9453 15.1641C52.1328 14.8438 52.3281 14.5273 52.5312 14.2148C52.7422 13.9023 52.9609 13.6055 53.1875 13.3242C53.4141 13.0508 53.6406 12.8555 53.8672 12.7383C54.1016 12.6133 54.3203 12.5508 54.5234 12.5508C54.9297 12.5508 55.2305 12.6992 55.4258 12.9961C55.6211 13.293 55.7188 13.6602 55.7188 14.0977C55.7188 14.1992 55.7109 14.3242 55.6953 14.4727C55.6875 14.6133 55.6758 14.7656 55.6602 14.9297C55.6523 15.0938 55.6406 15.2617 55.625 15.4336C55.6172 15.5977 55.6133 15.7539 55.6133 15.9023C55.6133 16.0898 55.6211 16.2695 55.6367 16.4414C55.6602 16.6133 55.6992 16.7656 55.7539 16.8984C55.8086 17.0234 55.8867 17.125 55.9883 17.2031C56.0898 17.2734 56.2227 17.3086 56.3867 17.3086C56.6836 17.3086 56.9727 17.1953 57.2539 16.9688C57.5352 16.7344 57.793 16.4609 58.0273 16.1484C58.2695 15.8281 58.4766 15.5039 58.6484 15.1758C58.8281 14.8477 58.9609 14.582 59.0469 14.3789C59.0859 14.293 59.1406 14.2266 59.2109 14.1797C59.2891 14.1328 59.3711 14.1094 59.457 14.1094C59.5898 14.1094 59.6953 14.1602 59.7734 14.2617C59.8594 14.3555 59.9023 14.457 59.9023 14.5664C59.9023 14.6211 59.8906 14.6758 59.8672 14.7305C59.8359 14.793 59.7734 14.9219 59.6797 15.1172C59.5859 15.3125 59.4609 15.5391 59.3047 15.7969C59.1562 16.0469 58.9805 16.3164 58.7773 16.6055C58.5742 16.8867 58.3477 17.1445 58.0977 17.3789C57.8555 17.6133 57.5898 17.8086 57.3008 17.9648C57.0195 18.1211 56.7227 18.1992 56.4102 18.1992C56.0586 18.1992 55.7734 18.1328 55.5547 18C55.3359 17.8594 55.1641 17.6797 55.0391 17.4609C54.9141 17.2344 54.8281 16.9883 54.7812 16.7227C54.7422 16.4492 54.7227 16.1758 54.7227 15.9023C54.7227 15.7852 54.7266 15.6523 54.7344 15.5039C54.75 15.3555 54.7656 15.1992 54.7812 15.0352C54.8047 14.8711 54.8203 14.707 54.8281 14.543C54.8438 14.3789 54.8516 14.2227 54.8516 14.0742C54.8516 13.8242 54.8125 13.6562 54.7344 13.5703C54.6562 13.4766 54.5859 13.4297 54.5234 13.4297C54.3984 13.4297 54.2539 13.5039 54.0898 13.6523C53.9336 13.793 53.7656 13.9805 53.5859 14.2148C53.4141 14.4492 53.2344 14.7148 53.0469 15.0117C52.8672 15.3008 52.6953 15.5898 52.5312 15.8789C52.375 16.168 52.2266 16.4453 52.0859 16.7109C51.9531 16.9688 51.8477 17.1836 51.7695 17.3555C51.6133 17.6836 51.457 17.9023 51.3008 18.0117C51.1445 18.1289 50.9844 18.1875 50.8203 18.1875C50.5938 18.1875 50.4102 18.1211 50.2695 17.9883C50.1367 17.8477 50.0703 17.6523 50.0703 17.4023C50.0703 17.3477 50.0781 17.2422 50.0938 17.0859C50.1094 16.9219 50.1289 16.7305 50.1523 16.5117C50.1758 16.2852 50.1992 16.043 50.2227 15.7852C50.2461 15.5273 50.2695 15.2734 50.293 15.0234C50.3164 14.7656 50.3359 14.5273 50.3516 14.3086C50.3672 14.0898 50.375 13.9062 50.375 13.7578C50.375 13.5625 50.3672 13.375 50.3516 13.1953C50.3359 13.0156 50.3047 12.9062 50.2578 12.8672C50.1875 12.8906 50.0625 13.0391 49.8828 13.3125C49.7031 13.5781 49.4727 14.0508 49.1914 14.7305C49.1523 14.8164 49.0938 14.8828 49.0156 14.9297C48.9375 14.9766 48.8555 15 48.7695 15C48.6367 15 48.5312 14.957 48.4531 14.8711C48.375 14.7773 48.3359 14.6719 48.3359 14.5547C48.3359 14.5 48.3477 14.4414 48.3711 14.3789C48.7227 13.543 49.0508 12.9297 49.3555 12.5391C49.668 12.1406 49.9766 11.9414 50.2812 11.9414C50.4609 11.9414 50.6133 11.9883 50.7383 12.082C50.8633 12.168 50.9609 12.2852 51.0312 12.4336C51.1094 12.582 51.1641 12.7461 51.1953 12.9258C51.2344 13.1055 51.2539 13.2891 51.2539 13.4766C51.2539 13.6172 51.2422 13.8359 51.2188 14.1328C51.2031 14.4297 51.1797 14.75 51.1484 15.0938C51.1172 15.4297 51.0859 15.7656 51.0547 16.1016C51.0312 16.4375 51.0078 16.7188 50.9844 16.9453ZM86.8203 17.9414C86.8516 17.9961 86.8672 18.0625 86.8672 18.1406C86.8672 18.2578 86.8242 18.3594 86.7383 18.4453C86.6602 18.5312 86.5547 18.5742 86.4219 18.5742C86.3359 18.5742 86.2578 18.5547 86.1875 18.5156C86.125 18.4766 86.0742 18.418 86.0352 18.3398C85.8867 18.0508 85.7539 17.6914 85.6367 17.2617C85.5273 16.8242 85.4297 16.3398 85.3438 15.8086C85.2656 15.2773 85.1992 14.707 85.1445 14.0977C85.0977 13.4805 85.0586 12.8438 85.0273 12.1875C84.4414 12.2656 83.7812 12.3516 83.0469 12.4453C82.3203 12.5391 81.4883 12.6484 80.5508 12.7734C79.8945 12.8672 79.2266 12.9492 78.5469 13.0195C76.875 14.8398 75.1133 16.2227 73.2617 17.168C71.418 18.1055 69.5664 18.5742 67.707 18.5742C66.8789 18.5742 66.1602 18.4922 65.5508 18.3281C64.9492 18.1719 64.4492 17.9961 64.0508 17.8008C63.6602 17.5977 63.3672 17.4102 63.1719 17.2383C62.9688 17.0664 62.8594 16.9727 62.8438 16.957C62.7656 16.8789 62.7266 16.7773 62.7266 16.6523C62.7266 16.5273 62.7695 16.4219 62.8555 16.3359C62.9414 16.25 63.043 16.207 63.1602 16.207C63.293 16.207 63.4023 16.2539 63.4883 16.3477C63.5039 16.3633 63.5977 16.4453 63.7695 16.5938C63.9414 16.7344 64.1953 16.8867 64.5312 17.0508C64.875 17.2148 65.3086 17.3633 65.832 17.4961C66.3555 17.6289 66.9766 17.6953 67.6953 17.6953C68.6797 17.6953 69.6211 17.5625 70.5195 17.2969C71.418 17.0312 72.2656 16.6875 73.0625 16.2656C73.8672 15.8359 74.6133 15.3477 75.3008 14.8008C75.9961 14.2539 76.625 13.6992 77.1875 13.1367C76.6328 13.1836 76.082 13.2188 75.5352 13.2422C74.9883 13.2656 74.4492 13.2773 73.918 13.2773C72.8711 13.2773 71.875 13.2188 70.9297 13.1016C69.9844 12.9844 69.1523 12.7891 68.4336 12.5156C67.7148 12.2344 67.1406 11.8633 66.7109 11.4023C66.2891 10.9414 66.0781 10.3672 66.0781 9.67969C66.0781 9.36719 66.1406 9.05469 66.2656 8.74219C66.3984 8.42969 66.5547 8.14844 66.7344 7.89844C66.9141 7.64062 67.1016 7.43359 67.2969 7.27734C67.4922 7.11328 67.6602 7.03125 67.8008 7.03125C67.9102 7.03125 68.0117 7.07031 68.1055 7.14844C68.1992 7.22656 68.2461 7.33203 68.2461 7.46484C68.2461 7.53516 68.2305 7.60547 68.1992 7.67578C68.168 7.73828 68.1211 7.78906 68.0586 7.82812C68.043 7.84375 67.9766 7.89844 67.8594 7.99219C67.7422 8.08594 67.6172 8.21484 67.4844 8.37891C67.3516 8.53516 67.2305 8.72656 67.1211 8.95312C67.0117 9.17188 66.957 9.41016 66.957 9.66797C66.957 10.1133 67.1094 10.5078 67.4141 10.8516C67.7266 11.1875 68.1758 11.4727 68.7617 11.707C69.3555 11.9336 70.082 12.1055 70.9414 12.2227C71.8008 12.3398 72.7812 12.3984 73.8828 12.3984C74.5156 12.3984 75.1836 12.3789 75.8867 12.3398C76.5898 12.3008 77.332 12.2422 78.1133 12.1641C78.4883 11.75 78.8203 11.3594 79.1094 10.9922C79.3984 10.625 79.6445 10.2969 79.8477 10.0078C80.1836 9.53125 80.5352 9.02344 80.9023 8.48438C81.2695 7.94531 81.6328 7.39844 81.9922 6.84375C82.3594 6.28906 82.7148 5.74219 83.0586 5.20312C83.4102 4.65625 83.7383 4.14453 84.043 3.66797C84.3477 3.18359 84.6211 2.74609 84.8633 2.35547C85.1055 1.95703 85.3047 1.62891 85.4609 1.37109C85.5078 1.16016 85.5781 0.96875 85.6719 0.796875C85.7656 0.617188 85.918 0.527344 86.1289 0.527344C86.2461 0.527344 86.3594 0.578125 86.4688 0.679688C86.5781 0.773438 86.6328 0.894531 86.6328 1.04297C86.6328 1.15234 86.5938 1.26953 86.5156 1.39453C86.4375 1.51953 86.3633 1.625 86.293 1.71094C86.2695 1.85938 86.2305 2.17578 86.1758 2.66016C86.1289 3.14453 86.0781 3.73828 86.0234 4.44141C85.9766 5.13672 85.9336 5.90625 85.8945 6.75C85.8633 7.58594 85.8477 8.43359 85.8477 9.29297C85.8477 9.61328 85.8477 9.92969 85.8477 10.2422C85.8477 10.5547 85.8555 10.8711 85.8711 11.1914C87.043 11.043 87.8984 10.9414 88.4375 10.8867C88.9766 10.8242 89.2617 10.793 89.293 10.793C89.3945 10.793 89.4922 10.8359 89.5859 10.9219C89.6875 11 89.7383 11.1055 89.7383 11.2383C89.7383 11.3477 89.6992 11.4453 89.6211 11.5312C89.5508 11.6094 89.457 11.6562 89.3398 11.6719C89.1992 11.6875 89.0352 11.707 88.8477 11.7305C88.6602 11.7539 88.4297 11.7812 88.1562 11.8125C87.8828 11.8438 87.5625 11.8828 87.1953 11.9297C86.8281 11.9688 86.3984 12.0195 85.9062 12.082C85.9297 12.7227 85.9648 13.3398 86.0117 13.9336C86.0664 14.5195 86.1289 15.0664 86.1992 15.5742C86.2773 16.082 86.3672 16.5391 86.4688 16.9453C86.5703 17.3516 86.6875 17.6836 86.8203 17.9414ZM80.4336 11.8945C81.3555 11.7695 82.1914 11.6602 82.9414 11.5664C83.6992 11.4648 84.3828 11.375 84.9922 11.2969C84.9844 10.9609 84.9766 10.625 84.9688 10.2891C84.9688 9.95312 84.9688 9.61328 84.9688 9.26953C84.9688 8.16797 84.9883 7.11719 85.0273 6.11719C85.0664 5.10938 85.1211 4.23438 85.1914 3.49219C84.8789 3.98438 84.5312 4.53125 84.1484 5.13281C83.7734 5.72656 83.3828 6.33594 82.9766 6.96094C82.5703 7.57812 82.1602 8.19141 81.7461 8.80078C81.332 9.41016 80.9375 9.98047 80.5625 10.5117C80.375 10.7773 80.1836 11.0352 79.9883 11.2852C79.793 11.5352 79.5977 11.7812 79.4023 12.0234C79.5742 12.0078 79.7422 11.9883 79.9062 11.9648C80.0781 11.9414 80.2539 11.918 80.4336 11.8945ZM91.1211 17.0039C91.2461 16.7383 91.3906 16.4531 91.5547 16.1484C91.7188 15.8359 91.8945 15.5195 92.082 15.1992C92.2695 14.8711 92.4688 14.5469 92.6797 14.2266C92.8906 13.9062 93.1094 13.6055 93.3359 13.3242C93.5625 13.0508 93.7891 12.8555 94.0156 12.7383C94.25 12.6133 94.4688 12.5508 94.6719 12.5508C94.875 12.5508 95.0508 12.5938 95.1992 12.6797C95.3555 12.7578 95.4805 12.8672 95.5742 13.0078C95.6758 13.1484 95.75 13.3125 95.7969 13.5C95.8516 13.6875 95.8789 13.8906 95.8789 14.1094C95.8789 14.2891 95.8594 14.5312 95.8203 14.8359C95.7891 15.1328 95.7734 15.4453 95.7734 15.7734C95.7734 15.9609 95.7812 16.1484 95.7969 16.3359C95.8203 16.5156 95.8555 16.6797 95.9023 16.8281C95.957 16.9688 96.0352 17.0859 96.1367 17.1797C96.2383 17.2656 96.3711 17.3086 96.5352 17.3086C96.7227 17.3086 96.9102 17.2578 97.0977 17.1562C97.2852 17.0469 97.4688 16.9062 97.6484 16.7344C97.8281 16.5547 98 16.3594 98.1641 16.1484C98.3281 15.9297 98.4766 15.7148 98.6094 15.5039C98.7422 15.2852 98.8594 15.0781 98.9609 14.8828C99.0625 14.6797 99.1445 14.5117 99.207 14.3789C99.2852 14.1992 99.4219 14.1094 99.6172 14.1094C99.75 14.1094 99.8555 14.1562 99.9336 14.25C100.012 14.3438 100.051 14.4453 100.051 14.5547C100.051 14.6172 100.039 14.6758 100.016 14.7305C99.9844 14.793 99.9219 14.9219 99.8281 15.1172C99.7422 15.3125 99.6211 15.5391 99.4648 15.7969C99.3164 16.0547 99.1406 16.3242 98.9375 16.6055C98.7344 16.8867 98.5078 17.1484 98.2578 17.3906C98.0156 17.625 97.75 17.8203 97.4609 17.9766C97.1797 18.125 96.8828 18.1992 96.5703 18.1992C96.2109 18.1992 95.9219 18.125 95.7031 17.9766C95.4844 17.8203 95.3125 17.625 95.1875 17.3906C95.0703 17.1562 94.9883 16.8945 94.9414 16.6055C94.9023 16.3164 94.8828 16.0352 94.8828 15.7617C94.8828 15.6211 94.8867 15.4727 94.8945 15.3164C94.9102 15.1523 94.9258 14.9922 94.9414 14.8359C94.957 14.6797 94.9688 14.5352 94.9766 14.4023C94.9922 14.2617 95 14.1445 95 14.0508C95 13.8086 94.9648 13.6445 94.8945 13.5586C94.832 13.4727 94.7578 13.4297 94.6719 13.4297C94.5469 13.4297 94.4023 13.5039 94.2383 13.6523C94.082 13.793 93.9141 13.9805 93.7344 14.2148C93.5625 14.4492 93.3867 14.7148 93.207 15.0117C93.0352 15.3008 92.8672 15.5898 92.7031 15.8789C92.5391 16.168 92.3906 16.4453 92.2578 16.7109C92.125 16.9688 92.0156 17.1836 91.9297 17.3555C91.7656 17.6836 91.5977 17.9023 91.4258 18.0117C91.2617 18.1289 91.1133 18.1875 90.9805 18.1875C90.7383 18.1875 90.5508 18.0938 90.418 17.9062C90.293 17.7109 90.2305 17.4766 90.2305 17.2031V16.4648C90.2305 14.9883 90.2305 13.582 90.2305 12.2461C90.2383 10.9023 90.2578 9.65625 90.2891 8.50781C90.3281 7.35156 90.3867 6.30859 90.4648 5.37891C90.5508 4.44141 90.6758 3.64453 90.8398 2.98828C91.0039 2.32422 91.2109 1.8125 91.4609 1.45312C91.7188 1.09375 92.0391 0.914062 92.4219 0.914062C92.75 0.914062 93.0273 1.00391 93.2539 1.18359C93.4805 1.36328 93.6641 1.60937 93.8047 1.92188C93.9453 2.22656 94.0469 2.58594 94.1094 3C94.1719 3.40625 94.2031 3.83594 94.2031 4.28906C94.2031 5.21094 94.1172 6.11719 93.9453 7.00781C93.7812 7.89062 93.5586 8.75391 93.2773 9.59766C92.9961 10.4414 92.668 11.2656 92.293 12.0703C91.918 12.8672 91.5234 13.6445 91.1094 14.4023C91.1094 14.543 91.1094 14.7109 91.1094 14.9062C91.1094 15.1016 91.1094 15.2969 91.1094 15.4922C91.1094 15.6875 91.1094 15.8711 91.1094 16.043C91.1094 16.2148 91.1094 16.3516 91.1094 16.4531L91.1211 17.0039ZM91.1211 12.6797C91.4492 11.9609 91.7461 11.2617 92.0117 10.582C92.2852 9.89453 92.5156 9.21094 92.7031 8.53125C92.8984 7.85156 93.0508 7.16406 93.1602 6.46875C93.2695 5.76562 93.3242 5.03516 93.3242 4.27734C93.3242 4.15234 93.3164 3.95312 93.3008 3.67969C93.293 3.40625 93.2578 3.12891 93.1953 2.84766C93.1406 2.56641 93.0508 2.32031 92.9258 2.10938C92.8086 1.89844 92.6406 1.79297 92.4219 1.79297C92.25 1.79297 92.1016 1.91016 91.9766 2.14453C91.8516 2.37109 91.7422 2.68359 91.6484 3.08203C91.5547 3.47266 91.4766 3.92969 91.4141 4.45312C91.3516 4.97656 91.3008 5.53125 91.2617 6.11719C91.2227 6.70312 91.1914 7.30469 91.168 7.92188C91.1523 8.53906 91.1406 9.14062 91.1328 9.72656C91.125 10.3047 91.1211 10.8477 91.1211 11.3555C91.1211 11.8633 91.1211 12.3047 91.1211 12.6797ZM101.926 16.957C102.043 16.7227 102.191 16.4336 102.371 16.0898C102.559 15.7383 102.75 15.3867 102.945 15.0352C103.148 14.6836 103.344 14.3516 103.531 14.0391C103.727 13.7266 103.891 13.4883 104.023 13.3242C104.25 13.0508 104.484 12.8555 104.727 12.7383C104.969 12.6211 105.191 12.5625 105.395 12.5625C105.598 12.5625 105.77 12.6055 105.91 12.6914C106.059 12.7773 106.18 12.8945 106.273 13.043C106.367 13.1836 106.438 13.3516 106.484 13.5469C106.531 13.7344 106.555 13.9375 106.555 14.1562C106.555 14.2812 106.547 14.4453 106.531 14.6484C106.523 14.8516 106.512 15.0703 106.496 15.3047C106.488 15.5391 106.477 15.7812 106.461 16.0312C106.453 16.2812 106.445 16.5156 106.438 16.7344C106.555 16.5 106.688 16.2422 106.836 15.9609C106.984 15.6719 107.133 15.3867 107.281 15.1055C107.438 14.8242 107.586 14.5625 107.727 14.3203C107.867 14.0703 107.996 13.8672 108.113 13.7109C108.449 13.25 108.762 12.9414 109.051 12.7852C109.348 12.6289 109.609 12.5508 109.836 12.5508C110.102 12.5508 110.32 12.6016 110.492 12.7031C110.664 12.7969 110.797 12.9219 110.891 13.0781C110.992 13.2266 111.062 13.3945 111.102 13.582C111.141 13.7695 111.16 13.9492 111.16 14.1211C111.16 14.3867 111.141 14.6641 111.102 14.9531C111.062 15.2422 111.043 15.5859 111.043 15.9844C111.043 16.1484 111.051 16.3125 111.066 16.4766C111.082 16.6406 111.113 16.7852 111.16 16.9102C111.215 17.0352 111.297 17.1367 111.406 17.2148C111.516 17.293 111.664 17.332 111.852 17.332C112.055 17.332 112.254 17.2812 112.449 17.1797C112.645 17.0703 112.832 16.9297 113.012 16.7578C113.191 16.5859 113.359 16.3906 113.516 16.1719C113.68 15.9531 113.828 15.7344 113.961 15.5156C114.094 15.2969 114.211 15.0898 114.312 14.8945C114.414 14.6914 114.496 14.5195 114.559 14.3789C114.598 14.293 114.652 14.2266 114.723 14.1797C114.793 14.1328 114.871 14.1094 114.957 14.1094C115.09 14.1094 115.195 14.1602 115.273 14.2617C115.359 14.3555 115.402 14.457 115.402 14.5664C115.402 14.6211 115.391 14.6758 115.367 14.7305C115.336 14.793 115.273 14.9258 115.18 15.1289C115.086 15.3242 114.961 15.5508 114.805 15.8086C114.648 16.0586 114.465 16.3242 114.254 16.6055C114.051 16.8867 113.824 17.1484 113.574 17.3906C113.324 17.625 113.055 17.8203 112.766 17.9766C112.477 18.125 112.172 18.1992 111.852 18.1992C111.508 18.1992 111.227 18.1367 111.008 18.0117C110.797 17.8945 110.625 17.7344 110.492 17.5312C110.367 17.3281 110.281 17.0938 110.234 16.8281C110.188 16.5625 110.164 16.2852 110.164 15.9961C110.164 15.6133 110.184 15.2617 110.223 14.9414C110.262 14.6133 110.281 14.3594 110.281 14.1797C110.281 13.9844 110.262 13.8359 110.223 13.7344C110.191 13.6328 110.148 13.5625 110.094 13.5234C110.047 13.4766 110 13.4531 109.953 13.4531C109.906 13.4453 109.871 13.4414 109.848 13.4414C109.66 13.4414 109.461 13.5469 109.25 13.7578C109.047 13.9609 108.836 14.2344 108.617 14.5781C108.398 14.9219 108.172 15.3125 107.938 15.75C107.711 16.1875 107.48 16.6328 107.246 17.0859C107.113 17.3359 107 17.543 106.906 17.707C106.82 17.8711 106.734 18 106.648 18.0938C106.57 18.1875 106.492 18.2539 106.414 18.293C106.336 18.332 106.25 18.3516 106.156 18.3516C105.953 18.3516 105.797 18.2812 105.688 18.1406C105.586 18 105.535 17.8164 105.535 17.5898C105.535 17.4727 105.539 17.3164 105.547 17.1211C105.555 16.9258 105.562 16.7109 105.57 16.4766C105.578 16.2422 105.59 16 105.605 15.75C105.621 15.5 105.633 15.2617 105.641 15.0352C105.648 14.8008 105.656 14.5938 105.664 14.4141C105.672 14.2344 105.676 14.0977 105.676 14.0039C105.676 13.8008 105.641 13.6562 105.57 13.5703C105.5 13.4766 105.418 13.4297 105.324 13.4297C105.238 13.4297 105.141 13.4609 105.031 13.5234C104.93 13.5859 104.809 13.707 104.668 13.8867C104.559 14.0273 104.418 14.2344 104.246 14.5078C104.082 14.7734 103.906 15.0703 103.719 15.3984C103.531 15.7266 103.344 16.0625 103.156 16.4062C102.977 16.75 102.82 17.0586 102.688 17.332C102.523 17.6602 102.359 17.8828 102.195 18C102.031 18.125 101.871 18.1875 101.715 18.1875C101.488 18.1875 101.32 18.1211 101.211 17.9883C101.102 17.8477 101.047 17.6641 101.047 17.4375C101.047 17.4141 101.051 17.2734 101.059 17.0156C101.074 16.7578 101.09 16.4453 101.105 16.0781C101.121 15.7031 101.137 15.3047 101.152 14.8828C101.176 14.4609 101.195 14.0664 101.211 13.6992C101.219 13.5039 101.211 13.3242 101.188 13.1602C101.164 12.9961 101.133 12.8984 101.094 12.8672C101.031 12.8828 100.906 13.0273 100.719 13.3008C100.539 13.5742 100.309 14.0508 100.027 14.7305C99.9883 14.8164 99.9297 14.8828 99.8516 14.9297C99.7734 14.9766 99.6914 15 99.6055 15C99.4727 15 99.3672 14.957 99.2891 14.8711C99.2109 14.7773 99.1719 14.6719 99.1719 14.5547C99.1719 14.5 99.1836 14.4414 99.207 14.3789C99.5586 13.543 99.8945 12.9297 100.215 12.5391C100.535 12.1406 100.848 11.9414 101.152 11.9414C101.332 11.9414 101.48 11.9844 101.598 12.0703C101.723 12.1484 101.82 12.2539 101.891 12.3867C101.961 12.5117 102.012 12.6562 102.043 12.8203C102.074 12.9844 102.09 13.1445 102.09 13.3008C102.09 13.9961 102.07 14.6328 102.031 15.2109C102 15.7891 101.965 16.3711 101.926 16.957ZM115.977 16.7109C116.141 16.9375 116.352 17.1211 116.609 17.2617C116.867 17.3945 117.184 17.4609 117.559 17.4609C117.941 17.4609 118.289 17.3711 118.602 17.1914C118.914 17.0039 119.199 16.7617 119.457 16.4648C119.715 16.168 119.945 15.8359 120.148 15.4688C120.352 15.1016 120.535 14.7344 120.699 14.3672C120.738 14.2812 120.793 14.2188 120.863 14.1797C120.934 14.1328 121.012 14.1094 121.098 14.1094C121.23 14.1094 121.336 14.1562 121.414 14.25C121.5 14.3438 121.543 14.4453 121.543 14.5547C121.543 14.5938 121.539 14.6289 121.531 14.6602C121.523 14.6836 121.512 14.7109 121.496 14.7422C120.957 15.9297 120.367 16.8242 119.727 17.4258C119.094 18.0273 118.375 18.3359 117.57 18.3516C117.055 18.3516 116.609 18.25 116.234 18.0469C115.859 17.8516 115.551 17.5977 115.309 17.2852C115.066 16.9648 114.887 16.6055 114.77 16.207C114.652 15.8086 114.594 15.4102 114.594 15.0117C114.594 14.6133 114.641 14.2461 114.734 13.9102C114.836 13.5742 114.977 13.2812 115.156 13.0312C115.344 12.7812 115.562 12.5859 115.812 12.4453C116.07 12.3047 116.352 12.2344 116.656 12.2344C116.836 12.2344 117.012 12.2734 117.184 12.3516C117.363 12.4219 117.523 12.5273 117.664 12.668C117.805 12.8008 117.918 12.9648 118.004 13.1602C118.09 13.3555 118.133 13.5781 118.133 13.8281C118.133 14.1484 118.078 14.4492 117.969 14.7305C117.859 15.0117 117.707 15.2734 117.512 15.5156C117.324 15.7578 117.098 15.9805 116.832 16.1836C116.566 16.3867 116.281 16.5625 115.977 16.7109ZM115.625 15.9492C115.867 15.8477 116.086 15.7188 116.281 15.5625C116.484 15.4062 116.656 15.2344 116.797 15.0469C116.938 14.8594 117.047 14.6641 117.125 14.4609C117.203 14.25 117.242 14.0391 117.242 13.8281C117.242 13.5938 117.184 13.418 117.066 13.3008C116.949 13.1758 116.812 13.1133 116.656 13.1133C116.445 13.1133 116.266 13.1719 116.117 13.2891C115.969 13.4062 115.848 13.5586 115.754 13.7461C115.66 13.9336 115.59 14.1445 115.543 14.3789C115.504 14.6055 115.484 14.832 115.484 15.0586C115.484 15.1992 115.496 15.3477 115.52 15.5039C115.551 15.6602 115.586 15.8086 115.625 15.9492ZM125.258 14.5898C125.641 16.3945 126.195 17.2969 126.922 17.2969C127.203 17.2969 127.473 17.1953 127.73 16.9922C127.988 16.7812 128.227 16.5273 128.445 16.2305C128.672 15.9258 128.871 15.6055 129.043 15.2695C129.215 14.9336 129.355 14.6406 129.465 14.3906C129.543 14.2031 129.68 14.1094 129.875 14.1094C130 14.1094 130.105 14.1562 130.191 14.25C130.277 14.3438 130.32 14.4453 130.32 14.5547C130.32 14.6172 130.309 14.6719 130.285 14.7188C130.23 14.8516 130.148 15.0312 130.039 15.2578C129.938 15.4766 129.809 15.7148 129.652 15.9727C129.504 16.2227 129.336 16.4805 129.148 16.7461C128.961 17.0117 128.754 17.25 128.527 17.4609C128.301 17.6719 128.059 17.8477 127.801 17.9883C127.551 18.1211 127.285 18.1875 127.004 18.1875C126.48 18.1875 126.031 18.0078 125.656 17.6484C125.281 17.2812 124.957 16.6797 124.684 15.8438C124.309 16.6406 123.93 17.2188 123.547 17.5781C123.164 17.9375 122.75 18.1172 122.305 18.1172C122.07 18.1172 121.844 18.0781 121.625 18C121.406 17.9297 121.215 17.8086 121.051 17.6367C120.887 17.4648 120.754 17.2461 120.652 16.9805C120.551 16.707 120.5 16.375 120.5 15.9844C120.5 15.4453 120.594 14.9492 120.781 14.4961C120.969 14.043 121.211 13.6562 121.508 13.3359C121.805 13.0078 122.133 12.7539 122.492 12.5742C122.859 12.3945 123.223 12.3047 123.582 12.3047C123.699 12.3047 123.801 12.3477 123.887 12.4336C123.973 12.5117 124.016 12.6133 124.016 12.7383C124.016 12.8477 123.98 12.9453 123.91 13.0312C123.84 13.1172 123.746 13.168 123.629 13.1836C123.395 13.2148 123.145 13.2891 122.879 13.4062C122.613 13.5234 122.367 13.6953 122.141 13.9219C121.922 14.1406 121.738 14.4219 121.59 14.7656C121.449 15.1094 121.379 15.5195 121.379 15.9961C121.379 16.3867 121.457 16.6914 121.613 16.9102C121.777 17.1289 122.012 17.2383 122.316 17.2383C122.441 17.2383 122.574 17.207 122.715 17.1445C122.855 17.0742 123.004 16.9414 123.16 16.7461C123.324 16.5508 123.5 16.2734 123.688 15.9141C123.883 15.5547 124.098 15.082 124.332 14.4961C124.199 13.8086 124.078 13.0156 123.969 12.1172C123.859 11.2188 123.805 10.2148 123.805 9.10547C123.805 8.62109 123.82 8.11719 123.852 7.59375C123.883 7.0625 123.934 6.54688 124.004 6.04688C124.074 5.53906 124.168 5.05859 124.285 4.60547C124.402 4.15234 124.543 3.75391 124.707 3.41016C124.879 3.06641 125.078 2.79688 125.305 2.60156C125.531 2.39844 125.789 2.29688 126.078 2.29688C126.336 2.29688 126.555 2.36719 126.734 2.50781C126.914 2.64844 127.059 2.84375 127.168 3.09375C127.285 3.34375 127.371 3.64453 127.426 3.99609C127.48 4.34766 127.508 4.73438 127.508 5.15625C127.508 6.0625 127.43 6.96875 127.273 7.875C127.117 8.78125 126.922 9.64844 126.688 10.4766C126.461 11.3047 126.219 12.0703 125.961 12.7734C125.703 13.4766 125.469 14.082 125.258 14.5898ZM126.629 5.14453C126.629 4.94922 126.621 4.73828 126.605 4.51172C126.598 4.28516 126.57 4.07422 126.523 3.87891C126.484 3.67578 126.43 3.50781 126.359 3.375C126.289 3.24219 126.195 3.17578 126.078 3.17578C125.883 3.17578 125.699 3.34766 125.527 3.69141C125.363 4.03516 125.219 4.48828 125.094 5.05078C124.969 5.60547 124.867 6.23828 124.789 6.94922C124.719 7.65234 124.684 8.36328 124.684 9.08203C124.684 9.76953 124.711 10.457 124.766 11.1445C124.82 11.832 124.883 12.4453 124.953 12.9844C125.18 12.3828 125.395 11.7656 125.598 11.1328C125.801 10.4922 125.977 9.83984 126.125 9.17578C126.281 8.51172 126.402 7.84375 126.488 7.17188C126.582 6.49219 126.629 5.81641 126.629 5.14453Z" fill="black"/>
</svg>
