<svg width="22" height="22" viewBox="0 0 22 22" fill="none" xmlns="http://www.w3.org/2000/svg">
<path d="M21.4999 10.8969L11.7031 1.1C11.5296 0.925048 11.3156 0.7958 11.08 0.723816C10.8444 0.651832 10.5947 0.639354 10.3531 0.6875L2.78744 2.20625C2.64398 2.2349 2.51222 2.30539 2.40877 2.40883C2.30533 2.51228 2.23484 2.64404 2.20619 2.7875L0.687439 10.3531C0.639293 10.5947 0.651771 10.8445 0.723755 11.08C0.795739 11.3156 0.924986 11.5297 1.09994 11.7031L10.8968 21.5C11.0354 21.64 11.2004 21.7512 11.3823 21.827C11.5641 21.9029 11.7592 21.942 11.9562 21.942C12.1532 21.942 12.3483 21.9029 12.5301 21.827C12.712 21.7512 12.877 21.64 13.0156 21.5L21.4999 13.0156C21.64 12.877 21.7511 12.712 21.827 12.5302C21.9028 12.3483 21.9419 12.1533 21.9419 11.9562C21.9419 11.7592 21.9028 11.5642 21.827 11.3823C21.7511 11.2005 21.64 11.0355 21.4999 10.8969ZM6.87494 8C6.65243 8 6.43493 7.93402 6.24992 7.8104C6.06492 7.68679 5.92072 7.51109 5.83557 7.30552C5.75043 7.09995 5.72815 6.87375 5.77156 6.65552C5.81496 6.43729 5.92211 6.23684 6.07944 6.0795C6.23678 5.92217 6.43723 5.81502 6.65546 5.77162C6.87369 5.72821 7.09989 5.75049 7.30546 5.83564C7.51102 5.92078 7.68673 6.06498 7.81034 6.24998C7.93396 6.43499 7.99994 6.6525 7.99994 6.875C7.99994 7.17337 7.88141 7.45952 7.67043 7.6705C7.45946 7.88147 7.17331 8 6.87494 8Z" fill="#219653"/>
</svg>
