<svg width="158" height="30" viewBox="0 0 158 30" fill="none" xmlns="http://www.w3.org/2000/svg">
<path d="M21.832 2.92969C21.8477 2.99219 21.8555 3.04297 21.8555 3.08203C21.8555 3.23828 21.7969 3.35547 21.6797 3.43359C20.9219 4.01953 20.1133 4.64453 19.2539 5.30859C18.4023 5.96484 17.5312 6.64453 16.6406 7.34766C15.7578 8.04297 14.8672 8.74609 13.9688 9.45703C13.0781 10.1602 12.2148 10.8516 11.3789 11.5312C10.543 12.2031 9.74609 12.8516 8.98828 13.4766C8.23828 14.1016 7.55859 14.6758 6.94922 15.1992C6.33984 15.7148 5.81641 16.1758 5.37891 16.582C4.94141 16.9805 4.62109 17.2969 4.41797 17.5312C4.77734 17.4766 5.23047 17.4023 5.77734 17.3086C6.33203 17.2148 6.98828 17.1289 7.74609 17.0508C8.50391 16.9648 9.35938 16.8906 10.3125 16.8281C11.2734 16.7656 12.3359 16.7344 13.5 16.7344C14.5938 16.7344 15.7578 16.7812 16.9922 16.875C18.2344 16.9609 19.5625 17.1172 20.9766 17.3438C21.0859 17.3594 21.1758 17.4062 21.2461 17.4844C21.3164 17.5625 21.3516 17.6562 21.3516 17.7656C21.3516 17.8984 21.3086 18.0078 21.2227 18.0938C21.1367 18.1875 21.0312 18.2344 20.9062 18.2344C20.875 18.2344 20.8398 18.2305 20.8008 18.2227C19.4102 17.9961 18.1094 17.8398 16.8984 17.7539C15.6953 17.6602 14.5586 17.6133 13.4883 17.6133C12.5508 17.6133 11.668 17.6367 10.8398 17.6836C10.0117 17.7305 9.25 17.7852 8.55469 17.8477C7.85938 17.9102 7.23438 17.9766 6.67969 18.0469C6.125 18.125 5.65234 18.1914 5.26172 18.2461C5.14453 18.2617 5.02344 18.2812 4.89844 18.3047C4.77344 18.3281 4.65234 18.3477 4.53516 18.3633C4.41797 18.3789 4.30859 18.3906 4.20703 18.3984C4.11328 18.4141 4.03906 18.4219 3.98438 18.4219C3.79688 18.4219 3.62891 18.3711 3.48047 18.2695C3.33203 18.1758 3.25781 18.0273 3.25781 17.8242C3.25781 17.7148 3.28125 17.6016 3.32812 17.4844C3.38281 17.3672 3.47656 17.2422 3.60938 17.1094C3.85156 16.8438 4.16406 16.5273 4.54688 16.1602C4.9375 15.7852 5.45312 15.3203 6.09375 14.7656C6.46094 14.4453 6.90625 14.0703 7.42969 13.6406C7.95312 13.2031 8.52344 12.7305 9.14062 12.2227C9.76562 11.7148 10.4219 11.1875 11.1094 10.6406C11.7969 10.0859 12.4922 9.53125 13.1953 8.97656C13.8984 8.41406 14.5898 7.86328 15.2695 7.32422C15.9492 6.77734 16.5938 6.26562 17.2031 5.78906C17.8125 5.3125 18.3672 4.87891 18.8672 4.48828C19.375 4.08984 19.8008 3.75781 20.1445 3.49219C19.3086 3.4375 18.4609 3.35156 17.6016 3.23438C16.75 3.10937 15.9102 2.97266 15.082 2.82422C14.2539 2.67578 13.4453 2.52344 12.6562 2.36719C11.8672 2.21094 11.1172 2.07031 10.4062 1.94531C9.70312 1.8125 9.04688 1.70703 8.4375 1.62891C7.82812 1.54297 7.28906 1.5 6.82031 1.5C6.08594 1.5 5.39844 1.58984 4.75781 1.76953C4.125 1.94922 3.57031 2.20703 3.09375 2.54297C2.625 2.87891 2.25391 3.28125 1.98047 3.75C1.71484 4.21875 1.58203 4.73828 1.58203 5.30859C1.58203 5.69922 1.64844 6.07031 1.78125 6.42188C1.91406 6.77344 2.11328 7.08203 2.37891 7.34766C2.65234 7.61328 2.98438 7.82422 3.375 7.98047C3.77344 8.12891 4.23828 8.20312 4.76953 8.20312C5.28516 8.20312 5.79297 8.11719 6.29297 7.94531C6.79297 7.77344 7.25781 7.51953 7.6875 7.18359C7.77344 7.12109 7.86328 7.08984 7.95703 7.08984C8.07422 7.08984 8.17578 7.13281 8.26172 7.21875C8.35547 7.29688 8.40234 7.39844 8.40234 7.52344C8.40234 7.67188 8.34766 7.78906 8.23828 7.875C7.73047 8.27344 7.17578 8.57422 6.57422 8.77734C5.98047 8.98047 5.37891 9.08203 4.76953 9.08203C4.08984 9.08203 3.49609 8.98047 2.98828 8.77734C2.48047 8.56641 2.05469 8.28906 1.71094 7.94531C1.375 7.60156 1.12109 7.20312 0.949219 6.75C0.785156 6.28906 0.703125 5.80859 0.703125 5.30859C0.703125 4.59766 0.859375 3.95312 1.17188 3.375C1.49219 2.79688 1.92969 2.30469 2.48438 1.89844C3.03906 1.49219 3.6875 1.17969 4.42969 0.960938C5.17969 0.734375 5.98438 0.621094 6.84375 0.621094C7.39844 0.621094 8.01562 0.667969 8.69531 0.761719C9.375 0.855469 10.0977 0.972656 10.8633 1.11328C11.6367 1.25391 12.4414 1.41016 13.2773 1.58203C14.1211 1.74609 14.9805 1.90234 15.8555 2.05078C16.7305 2.19922 17.6094 2.32813 18.4922 2.4375C19.3828 2.54687 20.2656 2.61328 21.1406 2.63672H21.3984C21.4922 2.63672 21.5781 2.66406 21.6562 2.71875C21.7344 2.77344 21.793 2.84375 21.832 2.92969ZM31.3711 14.7305C31.3398 14.793 31.2734 14.9258 31.1719 15.1289C31.0781 15.3242 30.9531 15.5508 30.7969 15.8086C30.6484 16.0664 30.4727 16.3359 30.2695 16.6172C30.0664 16.8984 29.8398 17.1562 29.5898 17.3906C29.3398 17.625 29.0703 17.8203 28.7812 17.9766C28.4922 18.125 28.1875 18.1992 27.8672 18.1992C27.4141 18.1992 27.0312 18.0547 26.7188 17.7656C26.4141 17.4766 26.1914 17.1133 26.0508 16.6758C25.7852 17.1211 25.4688 17.4766 25.1016 17.7422C24.7344 18 24.3672 18.1289 24 18.1289C23.7109 18.1289 23.4492 18.0781 23.2148 17.9766C22.9805 17.8672 22.7812 17.7188 22.6172 17.5312C22.4531 17.3359 22.3242 17.1094 22.2305 16.8516C22.1445 16.5938 22.1016 16.3125 22.1016 16.0078C22.1016 15.3984 22.2031 14.8633 22.4062 14.4023C22.6172 13.9336 22.8828 13.543 23.2031 13.2305C23.5234 12.918 23.875 12.6836 24.2578 12.5273C24.6484 12.3711 25.0234 12.293 25.3828 12.293C25.625 12.293 25.8477 12.3281 26.0508 12.3984C26.2539 12.4609 26.4258 12.5312 26.5664 12.6094C26.7148 12.6875 26.8281 12.7617 26.9062 12.832C26.9844 12.8945 27.0273 12.9297 27.0352 12.9375C27.1211 13.0391 27.1641 13.1445 27.1641 13.2539C27.1641 13.3711 27.1211 13.4766 27.0352 13.5703C26.9492 13.6562 26.8477 13.6992 26.7305 13.6992C26.6055 13.6992 26.5 13.6562 26.4141 13.5703C26.3984 13.5547 26.3633 13.5273 26.3086 13.4883C26.2539 13.4414 26.1797 13.3945 26.0859 13.3477C25.9922 13.3008 25.8789 13.2617 25.7461 13.2305C25.6211 13.1914 25.4766 13.1719 25.3125 13.1719C25.0703 13.1719 24.8125 13.2266 24.5391 13.3359C24.2656 13.4453 24.0156 13.6172 23.7891 13.8516C23.5625 14.0781 23.3711 14.3672 23.2148 14.7188C23.0664 15.0625 22.9922 15.4727 22.9922 15.9492C22.9922 16.0977 23.0078 16.25 23.0391 16.4062C23.0703 16.5547 23.125 16.6914 23.2031 16.8164C23.2812 16.9414 23.3867 17.043 23.5195 17.1211C23.6523 17.1992 23.8164 17.2383 24.0117 17.2383C24.1523 17.2383 24.3125 17.1914 24.4922 17.0977C24.6797 17.0039 24.8555 16.8594 25.0195 16.6641C25.1914 16.4688 25.3438 16.2227 25.4766 15.9258C25.6172 15.6289 25.7148 15.2773 25.7695 14.8711C25.7852 14.7617 25.8359 14.6719 25.9219 14.6016C26.0078 14.5234 26.1094 14.4844 26.2266 14.4844C26.3359 14.4844 26.4297 14.5273 26.5078 14.6133C26.5938 14.6992 26.6406 14.7969 26.6484 14.9062C26.6562 15.0547 26.6719 15.2656 26.6953 15.5391C26.7188 15.8047 26.7695 16.0703 26.8477 16.3359C26.9336 16.6016 27.0586 16.832 27.2227 17.0273C27.3867 17.2227 27.6133 17.3203 27.9023 17.3203C28.0898 17.3203 28.2734 17.2695 28.4531 17.168C28.6406 17.0664 28.8203 16.9336 28.9922 16.7695C29.1719 16.5977 29.3398 16.4062 29.4961 16.1953C29.6602 15.9766 29.8086 15.7578 29.9414 15.5391C30.0742 15.3203 30.1914 15.1094 30.293 14.9062C30.3945 14.7031 30.4805 14.5273 30.5508 14.3789C30.5898 14.293 30.6445 14.2266 30.7148 14.1797C30.793 14.1328 30.875 14.1094 30.9609 14.1094C31.0938 14.1094 31.1992 14.1602 31.2773 14.2617C31.3633 14.3555 31.4062 14.457 31.4062 14.5664C31.4062 14.6211 31.3945 14.6758 31.3711 14.7305ZM33.5156 16.5586C33.6484 16.8555 33.8672 17.0938 34.1719 17.2734C34.4766 17.4453 34.8203 17.5312 35.2031 17.5312C35.3203 17.5312 35.5117 17.5156 35.7773 17.4844C36.043 17.4453 36.3477 17.3281 36.6914 17.1328C37.043 16.9297 37.4141 16.6133 37.8047 16.1836C38.1953 15.7539 38.5742 15.1484 38.9414 14.3672C38.9805 14.2812 39.0352 14.2188 39.1055 14.1797C39.1758 14.1328 39.2539 14.1094 39.3398 14.1094C39.4727 14.1094 39.5781 14.1562 39.6562 14.25C39.7422 14.3438 39.7852 14.4453 39.7852 14.5547C39.7852 14.6016 39.7695 14.6641 39.7383 14.7422C39.4648 15.3125 39.1602 15.8242 38.8242 16.2773C38.4883 16.7227 38.125 17.1055 37.7344 17.4258C37.3438 17.7383 36.9336 17.9766 36.5039 18.1406C36.082 18.3125 35.6484 18.3984 35.2031 18.3984C34.8516 18.3984 34.5195 18.3438 34.207 18.2344C33.9023 18.125 33.6367 17.9805 33.4102 17.8008C33.1914 17.6133 33.0156 17.4062 32.8828 17.1797C32.7578 16.9453 32.6953 16.707 32.6953 16.4648C32.6953 16.4336 32.6992 16.3906 32.707 16.3359C32.7148 16.2812 32.7344 16.2227 32.7656 16.1602C32.8047 16.0898 32.8555 16.0273 32.918 15.9727C32.9883 15.9102 33.082 15.8594 33.1992 15.8203C33.5195 15.7266 33.8125 15.6133 34.0781 15.4805C34.3516 15.3398 34.5859 15.1836 34.7812 15.0117C34.9766 14.8398 35.1289 14.6523 35.2383 14.4492C35.3477 14.2383 35.4023 14.0117 35.4023 13.7695C35.4023 13.5586 35.332 13.3867 35.1914 13.2539C35.0508 13.1211 34.8789 13.0547 34.6758 13.0547C34.4648 13.0547 34.2578 13.1289 34.0547 13.2773C33.8516 13.418 33.6523 13.6094 33.457 13.8516C33.2695 14.0859 33.0898 14.3594 32.918 14.6719C32.7461 14.9766 32.5859 15.2969 32.4375 15.6328C32.2969 15.9688 32.1719 16.3047 32.0625 16.6406C31.9531 16.9688 31.8633 17.2734 31.793 17.5547C31.7695 17.6406 31.7422 17.7344 31.7109 17.8359C31.6875 17.9375 31.6484 18.0312 31.5938 18.1172C31.5391 18.2109 31.4727 18.2852 31.3945 18.3398C31.3164 18.4023 31.2148 18.4336 31.0898 18.4336C30.9727 18.4336 30.8594 18.3828 30.75 18.2812C30.6406 18.1875 30.5859 18.0234 30.5859 17.7891C30.5859 17.7422 30.5859 17.5625 30.5859 17.25C30.5938 16.9375 30.6016 16.5312 30.6094 16.0312C30.6172 15.5234 30.625 14.9453 30.6328 14.2969C30.6484 13.6406 30.6602 12.9492 30.668 12.2227C30.6758 11.4883 30.6875 10.7344 30.7031 9.96094C30.7188 9.1875 30.7305 8.43359 30.7383 7.69922C30.7461 6.96484 30.7539 6.26953 30.7617 5.61328C30.7773 4.94922 30.7891 4.36328 30.7969 3.85547C30.8047 3.33984 30.8086 2.92187 30.8086 2.60156C30.8164 2.27344 30.8203 2.07812 30.8203 2.01562C30.8203 1.89062 30.8672 1.78906 30.9609 1.71094C31.0547 1.625 31.1562 1.58203 31.2656 1.58203C31.3906 1.58203 31.4961 1.625 31.582 1.71094C31.668 1.78906 31.7109 1.89453 31.7109 2.02734C31.7109 2.04297 31.707 2.19922 31.6992 2.49609C31.6992 2.78516 31.6953 3.17578 31.6875 3.66797C31.6797 4.16016 31.668 4.73438 31.6523 5.39062C31.6445 6.04688 31.6328 6.74609 31.6172 7.48828C31.6094 8.22266 31.5977 8.98047 31.582 9.76172C31.5742 10.543 31.5625 11.3047 31.5469 12.0469C31.5391 12.7891 31.5312 13.4961 31.5234 14.168C31.5156 14.8398 31.5078 15.4336 31.5 15.9492C31.625 15.5508 31.7852 15.1328 31.9805 14.6953C32.1758 14.25 32.4062 13.8398 32.6719 13.4648C32.9375 13.0898 33.2344 12.7812 33.5625 12.5391C33.8984 12.2969 34.2695 12.1758 34.6758 12.1758C34.9023 12.1758 35.1133 12.2188 35.3086 12.3047C35.5039 12.3828 35.6719 12.4961 35.8125 12.6445C35.9609 12.7852 36.0742 12.9531 36.1523 13.1484C36.2383 13.3438 36.2812 13.5547 36.2812 13.7812C36.2812 14.1328 36.2031 14.457 36.0469 14.7539C35.8906 15.043 35.6836 15.3047 35.4258 15.5391C35.168 15.7656 34.8711 15.9648 34.5352 16.1367C34.207 16.3086 33.8672 16.4492 33.5156 16.5586ZM48.0117 14.7305C47.9805 14.793 47.9141 14.9258 47.8125 15.1289C47.7188 15.3242 47.5938 15.5508 47.4375 15.8086C47.2891 16.0664 47.1133 16.3359 46.9102 16.6172C46.707 16.8984 46.4805 17.1562 46.2305 17.3906C45.9805 17.625 45.7109 17.8203 45.4219 17.9766C45.1328 18.125 44.8281 18.1992 44.5078 18.1992C44.0547 18.1992 43.6719 18.0547 43.3594 17.7656C43.0547 17.4766 42.832 17.1133 42.6914 16.6758C42.4258 17.1211 42.1094 17.4766 41.7422 17.7422C41.375 18 41.0078 18.1289 40.6406 18.1289C40.3516 18.1289 40.0898 18.0781 39.8555 17.9766C39.6211 17.8672 39.4219 17.7188 39.2578 17.5312C39.0938 17.3359 38.9648 17.1094 38.8711 16.8516C38.7852 16.5938 38.7422 16.3125 38.7422 16.0078C38.7422 15.3984 38.8438 14.8633 39.0469 14.4023C39.2578 13.9336 39.5234 13.543 39.8438 13.2305C40.1641 12.918 40.5156 12.6836 40.8984 12.5273C41.2891 12.3711 41.6641 12.293 42.0234 12.293C42.2656 12.293 42.4883 12.3281 42.6914 12.3984C42.8945 12.4609 43.0664 12.5312 43.207 12.6094C43.3555 12.6875 43.4688 12.7617 43.5469 12.832C43.625 12.8945 43.668 12.9297 43.6758 12.9375C43.7617 13.0391 43.8047 13.1445 43.8047 13.2539C43.8047 13.3711 43.7617 13.4766 43.6758 13.5703C43.5898 13.6562 43.4883 13.6992 43.3711 13.6992C43.2461 13.6992 43.1406 13.6562 43.0547 13.5703C43.0391 13.5547 43.0039 13.5273 42.9492 13.4883C42.8945 13.4414 42.8203 13.3945 42.7266 13.3477C42.6328 13.3008 42.5195 13.2617 42.3867 13.2305C42.2617 13.1914 42.1172 13.1719 41.9531 13.1719C41.7109 13.1719 41.4531 13.2266 41.1797 13.3359C40.9062 13.4453 40.6562 13.6172 40.4297 13.8516C40.2031 14.0781 40.0117 14.3672 39.8555 14.7188C39.707 15.0625 39.6328 15.4727 39.6328 15.9492C39.6328 16.0977 39.6484 16.25 39.6797 16.4062C39.7109 16.5547 39.7656 16.6914 39.8438 16.8164C39.9219 16.9414 40.0273 17.043 40.1602 17.1211C40.293 17.1992 40.457 17.2383 40.6523 17.2383C40.793 17.2383 40.9531 17.1914 41.1328 17.0977C41.3203 17.0039 41.4961 16.8594 41.6602 16.6641C41.832 16.4688 41.9844 16.2227 42.1172 15.9258C42.2578 15.6289 42.3555 15.2773 42.4102 14.8711C42.4258 14.7617 42.4766 14.6719 42.5625 14.6016C42.6484 14.5234 42.75 14.4844 42.8672 14.4844C42.9766 14.4844 43.0703 14.5273 43.1484 14.6133C43.2344 14.6992 43.2812 14.7969 43.2891 14.9062C43.2969 15.0547 43.3125 15.2656 43.3359 15.5391C43.3594 15.8047 43.4102 16.0703 43.4883 16.3359C43.5742 16.6016 43.6992 16.832 43.8633 17.0273C44.0273 17.2227 44.2539 17.3203 44.543 17.3203C44.7305 17.3203 44.9141 17.2695 45.0938 17.168C45.2812 17.0664 45.4609 16.9336 45.6328 16.7695C45.8125 16.5977 45.9805 16.4062 46.1367 16.1953C46.3008 15.9766 46.4492 15.7578 46.582 15.5391C46.7148 15.3203 46.832 15.1094 46.9336 14.9062C47.0352 14.7031 47.1211 14.5273 47.1914 14.3789C47.2305 14.293 47.2852 14.2266 47.3555 14.1797C47.4336 14.1328 47.5156 14.1094 47.6016 14.1094C47.7344 14.1094 47.8398 14.1602 47.918 14.2617C48.0039 14.3555 48.0469 14.457 48.0469 14.5664C48.0469 14.6211 48.0352 14.6758 48.0117 14.7305ZM48.4336 13.1836C48.4023 13.3945 48.3633 13.5938 48.3164 13.7812C48.2695 13.9609 48.2227 14.1211 48.1758 14.2617C48.1367 14.3945 48.1016 14.5039 48.0703 14.5898C48.0391 14.6758 48.0195 14.7227 48.0117 14.7305C47.9336 14.9102 47.7969 15 47.6016 15C47.4922 15 47.3906 14.9609 47.2969 14.8828C47.2031 14.7969 47.1562 14.6914 47.1562 14.5664C47.1562 14.5195 47.1641 14.4844 47.1797 14.4609C47.1953 14.4375 47.2188 14.3906 47.25 14.3203C47.2812 14.25 47.3203 14.1328 47.3672 13.9688C47.4141 13.8047 47.4727 13.5508 47.543 13.207C47.4102 13.207 47.2734 13.2031 47.1328 13.1953C46.9922 13.1875 46.8633 13.1602 46.7461 13.1133C46.6211 13.0664 46.5195 12.9922 46.4414 12.8906C46.3633 12.7891 46.3242 12.6484 46.3242 12.4688C46.3242 12.3359 46.3633 12.1562 46.4414 11.9297C46.5117 11.7031 46.6094 11.4805 46.7344 11.2617C46.8594 11.043 47 10.8555 47.1562 10.6992C47.3125 10.5352 47.4688 10.4531 47.625 10.4531C47.8047 10.4531 47.9492 10.5195 48.0586 10.6523C48.1758 10.7852 48.2656 10.9492 48.3281 11.1445C48.3906 11.332 48.4336 11.5312 48.457 11.7422C48.4883 11.9531 48.5039 12.1367 48.5039 12.293C48.6367 12.293 48.7656 12.293 48.8906 12.293C49.0234 12.2852 49.1484 12.2812 49.2656 12.2812C49.7109 12.2812 50.0508 12.3789 50.2852 12.5742C50.5195 12.7695 50.6367 13.0898 50.6367 13.5352C50.6367 13.7148 50.625 13.9023 50.6016 14.0977C50.5781 14.293 50.5508 14.4961 50.5195 14.707C50.4883 14.9102 50.4609 15.1133 50.4375 15.3164C50.4141 15.5195 50.4023 15.7188 50.4023 15.9141C50.4023 16.1953 50.4414 16.4297 50.5195 16.6172C50.5977 16.7969 50.6953 16.9414 50.8125 17.0508C50.9297 17.1602 51.0547 17.2383 51.1875 17.2852C51.3203 17.3242 51.4414 17.3438 51.5508 17.3438C51.8867 17.3438 52.2031 17.2344 52.5 17.0156C52.7969 16.7969 53.0703 16.5352 53.3203 16.2305C53.5703 15.918 53.793 15.5898 53.9883 15.2461C54.1914 14.9023 54.3594 14.6016 54.4922 14.3438C54.5312 14.2734 54.5859 14.2188 54.6562 14.1797C54.7266 14.1406 54.8008 14.1211 54.8789 14.1211C55.0195 14.1211 55.1289 14.168 55.207 14.2617C55.2852 14.3477 55.3242 14.4453 55.3242 14.5547C55.3242 14.6328 55.3086 14.7031 55.2773 14.7656C55.0977 15.0859 54.8867 15.4492 54.6445 15.8555C54.4102 16.2539 54.1406 16.6289 53.8359 16.9805C53.5312 17.332 53.1875 17.6289 52.8047 17.8711C52.4297 18.1133 52.0156 18.2344 51.5625 18.2344C51.2812 18.2344 51.0156 18.1797 50.7656 18.0703C50.5156 17.9688 50.2969 17.8203 50.1094 17.625C49.9297 17.4219 49.7852 17.1758 49.6758 16.8867C49.5664 16.5898 49.5117 16.2578 49.5117 15.8906C49.5117 15.5 49.5508 15.1133 49.6289 14.7305C49.707 14.3398 49.7461 13.9688 49.7461 13.6172C49.7461 13.4688 49.7109 13.3594 49.6406 13.2891C49.5781 13.2109 49.4336 13.1719 49.207 13.1719C49.0977 13.1719 48.9766 13.1719 48.8438 13.1719C48.7188 13.1719 48.582 13.1758 48.4336 13.1836ZM47.6484 12.3164C47.6484 12.2617 47.6445 12.1914 47.6367 12.1055C47.6367 12.0117 47.6289 11.9219 47.6133 11.8359C47.6055 11.75 47.5898 11.6758 47.5664 11.6133C47.5508 11.5508 47.5312 11.5195 47.5078 11.5195C47.4844 11.5195 47.4531 11.5508 47.4141 11.6133C47.3828 11.668 47.3477 11.7383 47.3086 11.8242C47.2695 11.9023 47.2344 11.9883 47.2031 12.082C47.1719 12.1758 47.1484 12.2539 47.1328 12.3164H47.6484ZM56.4023 8.80078C56.4023 9.09766 56.2969 9.35156 56.0859 9.5625C55.8828 9.76562 55.6328 9.86719 55.3359 9.86719C55.0391 9.86719 54.7852 9.76562 54.5742 9.5625C54.3711 9.35156 54.2695 9.09766 54.2695 8.80078C54.2695 8.65234 54.2969 8.51562 54.3516 8.39062C54.4062 8.25781 54.4805 8.14453 54.5742 8.05078C54.6758 7.94922 54.7891 7.87109 54.9141 7.81641C55.0469 7.76172 55.1875 7.73438 55.3359 7.73438C55.4844 7.73438 55.6211 7.76172 55.7461 7.81641C55.8789 7.87109 55.9922 7.94922 56.0859 8.05078C56.1875 8.14453 56.2656 8.25781 56.3203 8.39062C56.375 8.51562 56.4023 8.65234 56.4023 8.80078ZM54.5039 15.668C54.5039 14.543 54.5742 13.4219 54.7148 12.3047C54.7305 12.1953 54.7773 12.1016 54.8555 12.0234C54.9414 11.9375 55.0508 11.8945 55.1836 11.8945C55.3008 11.8945 55.3984 11.9414 55.4766 12.0352C55.5547 12.1211 55.5938 12.2227 55.5938 12.3398C55.5938 12.3867 55.582 12.5273 55.5586 12.7617C55.543 12.9961 55.5195 13.2773 55.4883 13.6055C55.4648 13.9258 55.4414 14.2695 55.418 14.6367C55.4023 14.9961 55.3945 15.3281 55.3945 15.6328C55.3945 16.0469 55.4336 16.3828 55.5117 16.6406C55.5977 16.8906 55.7031 17.0859 55.8281 17.2266C55.9609 17.3672 56.0977 17.4609 56.2383 17.5078C56.3867 17.5547 56.5273 17.5781 56.6602 17.5781C56.8789 17.5781 57.1055 17.5 57.3398 17.3438C57.5742 17.1875 57.8125 16.9688 58.0547 16.6875C58.3047 16.4062 58.5547 16.0703 58.8047 15.6797C59.0547 15.2812 59.3008 14.8398 59.543 14.3555C59.582 14.2773 59.6367 14.2188 59.707 14.1797C59.7773 14.1328 59.8555 14.1094 59.9414 14.1094C60.0664 14.1094 60.168 14.1562 60.2461 14.25C60.332 14.3438 60.375 14.4453 60.375 14.5547C60.375 14.6328 60.3594 14.6992 60.3281 14.7539C60.2344 14.9336 60.1172 15.1523 59.9766 15.4102C59.8359 15.668 59.6758 15.9336 59.4961 16.207C59.3164 16.4805 59.1172 16.7539 58.8984 17.0273C58.6875 17.293 58.4609 17.5352 58.2188 17.7539C57.9766 17.9648 57.7227 18.1367 57.457 18.2695C57.1914 18.4023 56.9219 18.4688 56.6484 18.4688C56.2969 18.4688 55.9883 18.3945 55.7227 18.2461C55.457 18.0977 55.2305 17.8984 55.043 17.6484C54.8633 17.3984 54.7266 17.1055 54.6328 16.7695C54.5469 16.4258 54.5039 16.0586 54.5039 15.668ZM55.7461 8.80078C55.7461 8.69141 55.7031 8.59766 55.6172 8.51953C55.5391 8.43359 55.4453 8.39062 55.3359 8.39062C55.2266 8.39062 55.1328 8.43359 55.0547 8.51953C54.9766 8.59766 54.9375 8.69141 54.9375 8.80078C54.9375 8.91016 54.9766 9.00391 55.0547 9.08203C55.1328 9.16016 55.2266 9.19922 55.3359 9.19922C55.4453 9.19922 55.5391 9.16016 55.6172 9.08203C55.7031 9.00391 55.7461 8.91016 55.7461 8.80078ZM63.8906 18.1641C64.1641 17.8906 64.4414 17.6133 64.7227 17.332C65.0039 17.043 65.2773 16.7422 65.543 16.4297C65.8086 16.1172 66.0547 15.793 66.2812 15.457C66.5156 15.1133 66.7227 14.75 66.9023 14.3672C66.9414 14.2812 66.9961 14.2188 67.0664 14.1797C67.1367 14.1328 67.2148 14.1094 67.3008 14.1094C67.4336 14.1094 67.5391 14.1562 67.6172 14.25C67.7031 14.3438 67.7461 14.4492 67.7461 14.5664C67.7461 14.6289 67.7344 14.6875 67.7109 14.7422C67.4688 15.25 67.1914 15.7148 66.8789 16.1367C66.5664 16.5586 66.2383 16.9609 65.8945 17.3438C65.5508 17.7188 65.2031 18.082 64.8516 18.4336C64.5 18.793 64.1641 19.1523 63.8438 19.5117C63.8125 20.0508 63.8125 20.5898 63.8438 21.1289C63.875 21.6758 63.8906 22.2539 63.8906 22.8633C63.8906 23.3633 63.875 23.8633 63.8438 24.3633C63.8125 24.8633 63.7617 25.3398 63.6914 25.793C63.6211 26.2539 63.5234 26.6836 63.3984 27.082C63.2812 27.4805 63.1289 27.8242 62.9414 28.1133C62.7539 28.4102 62.5352 28.6406 62.2852 28.8047C62.0352 28.9766 61.7422 29.0625 61.4062 29.0625C60.8516 29.0625 60.4258 28.8711 60.1289 28.4883C59.832 28.1055 59.6836 27.5703 59.6836 26.8828C59.6836 26.5078 59.7227 26.1055 59.8008 25.6758C59.8867 25.2461 60.0039 24.8008 60.1523 24.3398C60.3008 23.8867 60.4766 23.4258 60.6797 22.957C60.8906 22.4883 61.1172 22.0312 61.3594 21.5859C61.6016 21.1406 61.8594 20.7148 62.1328 20.3086C62.4062 19.9102 62.6836 19.5469 62.9648 19.2188C62.9805 18.8438 62.9961 18.4531 63.0117 18.0469C63.0352 17.6484 63.0586 17.2773 63.082 16.9336C62.8789 17.293 62.625 17.582 62.3203 17.8008C62.0234 18.0195 61.6953 18.1289 61.3359 18.1289C60.7422 18.1289 60.2773 17.9297 59.9414 17.5312C59.6055 17.1328 59.4375 16.5859 59.4375 15.8906C59.4375 15.3828 59.4844 14.9219 59.5781 14.5078C59.6797 14.0859 59.7852 13.7266 59.8945 13.4297C60.0117 13.125 60.1172 12.8945 60.2109 12.7383C60.3047 12.5742 60.3516 12.4961 60.3516 12.5039C60.4375 12.3711 60.5586 12.3047 60.7148 12.3047C60.8477 12.3047 60.9531 12.3516 61.0312 12.4453C61.1172 12.5312 61.1602 12.6328 61.1602 12.75C61.1602 12.8359 61.1367 12.9141 61.0898 12.9844C61.0977 12.9766 61.0586 13.043 60.9727 13.1836C60.8945 13.3164 60.8047 13.5117 60.7031 13.7695C60.6094 14.0273 60.5195 14.3359 60.4336 14.6953C60.3555 15.0547 60.3164 15.4492 60.3164 15.8789C60.3164 16.3086 60.3945 16.6445 60.5508 16.8867C60.707 17.1289 60.9609 17.25 61.3125 17.25C61.7578 17.25 62.1602 16.9219 62.5195 16.2656C62.8789 15.6016 63.1836 14.6406 63.4336 13.3828C63.4492 13.2812 63.4961 13.1992 63.5742 13.1367C63.6523 13.0664 63.7461 13.0312 63.8555 13.0312C63.9805 13.0312 64.0859 13.0742 64.1719 13.1602C64.2578 13.2461 64.3008 13.3516 64.3008 13.4766C64.3008 13.5 64.2852 13.6406 64.2539 13.8984C64.2227 14.1484 64.1836 14.4844 64.1367 14.9062C64.0977 15.3281 64.0547 15.8203 64.0078 16.3828C63.9609 16.9375 63.9219 17.5312 63.8906 18.1641ZM62.9531 20.6484C62.6016 21.1562 62.2773 21.6914 61.9805 22.2539C61.6914 22.8164 61.4414 23.375 61.2305 23.9297C61.0195 24.4844 60.8555 25.0156 60.7383 25.5234C60.6211 26.0312 60.5625 26.4844 60.5625 26.8828C60.5625 27.2891 60.6289 27.6055 60.7617 27.832C60.8945 28.0664 61.1055 28.1836 61.3945 28.1836C61.6523 28.1836 61.8789 28.0547 62.0742 27.7969C62.2773 27.5469 62.4453 27.1875 62.5781 26.7188C62.7188 26.25 62.8242 25.6797 62.8945 25.0078C62.9648 24.3438 63 23.5977 63 22.7695C63 22.4336 62.9922 22.0938 62.9766 21.75C62.9688 21.4062 62.9609 21.0391 62.9531 20.6484ZM75.9727 14.7305C75.9414 14.793 75.875 14.9258 75.7734 15.1289C75.6797 15.3242 75.5547 15.5508 75.3984 15.8086C75.25 16.0664 75.0742 16.3359 74.8711 16.6172C74.668 16.8984 74.4414 17.1562 74.1914 17.3906C73.9414 17.625 73.6719 17.8203 73.3828 17.9766C73.0938 18.125 72.7891 18.1992 72.4688 18.1992C72.0156 18.1992 71.6328 18.0547 71.3203 17.7656C71.0156 17.4766 70.793 17.1133 70.6523 16.6758C70.3867 17.1211 70.0703 17.4766 69.7031 17.7422C69.3359 18 68.9688 18.1289 68.6016 18.1289C68.3125 18.1289 68.0508 18.0781 67.8164 17.9766C67.582 17.8672 67.3828 17.7188 67.2188 17.5312C67.0547 17.3359 66.9258 17.1094 66.832 16.8516C66.7461 16.5938 66.7031 16.3125 66.7031 16.0078C66.7031 15.3984 66.8047 14.8633 67.0078 14.4023C67.2188 13.9336 67.4844 13.543 67.8047 13.2305C68.125 12.918 68.4766 12.6836 68.8594 12.5273C69.25 12.3711 69.625 12.293 69.9844 12.293C70.2266 12.293 70.4492 12.3281 70.6523 12.3984C70.8555 12.4609 71.0273 12.5312 71.168 12.6094C71.3164 12.6875 71.4297 12.7617 71.5078 12.832C71.5859 12.8945 71.6289 12.9297 71.6367 12.9375C71.7227 13.0391 71.7656 13.1445 71.7656 13.2539C71.7656 13.3711 71.7227 13.4766 71.6367 13.5703C71.5508 13.6562 71.4492 13.6992 71.332 13.6992C71.207 13.6992 71.1016 13.6562 71.0156 13.5703C71 13.5547 70.9648 13.5273 70.9102 13.4883C70.8555 13.4414 70.7812 13.3945 70.6875 13.3477C70.5938 13.3008 70.4805 13.2617 70.3477 13.2305C70.2227 13.1914 70.0781 13.1719 69.9141 13.1719C69.6719 13.1719 69.4141 13.2266 69.1406 13.3359C68.8672 13.4453 68.6172 13.6172 68.3906 13.8516C68.1641 14.0781 67.9727 14.3672 67.8164 14.7188C67.668 15.0625 67.5938 15.4727 67.5938 15.9492C67.5938 16.0977 67.6094 16.25 67.6406 16.4062C67.6719 16.5547 67.7266 16.6914 67.8047 16.8164C67.8828 16.9414 67.9883 17.043 68.1211 17.1211C68.2539 17.1992 68.418 17.2383 68.6133 17.2383C68.7539 17.2383 68.9141 17.1914 69.0938 17.0977C69.2812 17.0039 69.457 16.8594 69.6211 16.6641C69.793 16.4688 69.9453 16.2227 70.0781 15.9258C70.2188 15.6289 70.3164 15.2773 70.3711 14.8711C70.3867 14.7617 70.4375 14.6719 70.5234 14.6016C70.6094 14.5234 70.7109 14.4844 70.8281 14.4844C70.9375 14.4844 71.0312 14.5273 71.1094 14.6133C71.1953 14.6992 71.2422 14.7969 71.25 14.9062C71.2578 15.0547 71.2734 15.2656 71.2969 15.5391C71.3203 15.8047 71.3711 16.0703 71.4492 16.3359C71.5352 16.6016 71.6602 16.832 71.8242 17.0273C71.9883 17.2227 72.2148 17.3203 72.5039 17.3203C72.6914 17.3203 72.875 17.2695 73.0547 17.168C73.2422 17.0664 73.4219 16.9336 73.5938 16.7695C73.7734 16.5977 73.9414 16.4062 74.0977 16.1953C74.2617 15.9766 74.4102 15.7578 74.543 15.5391C74.6758 15.3203 74.793 15.1094 74.8945 14.9062C74.9961 14.7031 75.082 14.5273 75.1523 14.3789C75.1914 14.293 75.2461 14.2266 75.3164 14.1797C75.3945 14.1328 75.4766 14.1094 75.5625 14.1094C75.6953 14.1094 75.8008 14.1602 75.8789 14.2617C75.9648 14.3555 76.0078 14.457 76.0078 14.5664C76.0078 14.6211 75.9961 14.6758 75.9727 14.7305ZM95.0977 3.64453C95.2148 3.64453 95.3164 3.6875 95.4023 3.77344C95.4961 3.85156 95.543 3.95703 95.543 4.08984C95.543 4.26172 95.4688 4.39062 95.3203 4.47656C95.2969 4.49219 95.1914 4.56641 95.0039 4.69922C94.8242 4.83203 94.625 5.04688 94.4062 5.34375C94.1875 5.64062 93.9766 6.03516 93.7734 6.52734C93.5703 7.01172 93.4414 7.61328 93.3867 8.33203C93.3711 8.45703 93.3594 8.58203 93.3516 8.70703C93.3516 8.83203 93.3477 8.95703 93.3398 9.08203C93.4805 9.06641 93.625 9.05469 93.7734 9.04688C93.9297 9.03125 94.0938 9.02344 94.2656 9.02344C94.8281 9.02344 95.3711 9.08594 95.8945 9.21094C96.418 9.33594 96.8984 9.51562 97.3359 9.75C98.4688 9.29688 99.3359 8.69531 99.9375 7.94531C100.539 7.19531 100.84 6.35938 100.84 5.4375C100.84 4.75 100.668 4.14062 100.324 3.60938C99.9805 3.07031 99.4961 2.61719 98.8711 2.25C98.2539 1.88281 97.5117 1.60156 96.6445 1.40625C95.7852 1.21094 94.8398 1.11328 93.8086 1.11328C92.9102 1.11328 91.9922 1.18359 91.0547 1.32422C90.125 1.45703 89.2227 1.66016 88.3477 1.93359C87.4805 2.20703 86.6641 2.54687 85.8984 2.95312C85.1328 3.35938 84.4648 3.82813 83.8945 4.35938C83.3242 4.88281 82.875 5.46875 82.5469 6.11719C82.2188 6.76562 82.0547 7.46875 82.0547 8.22656C82.0547 8.78906 82.1523 9.28516 82.3477 9.71484C82.543 10.1367 82.8008 10.4922 83.1211 10.7812C83.4492 11.0625 83.8242 11.2773 84.2461 11.4258C84.668 11.5664 85.1094 11.6367 85.5703 11.6367C86.1172 11.6367 86.5977 11.582 87.0117 11.4727C87.4258 11.3633 87.7734 11.2461 88.0547 11.1211C88.3359 10.9883 88.5469 10.8672 88.6875 10.7578C88.8359 10.6406 88.918 10.5742 88.9336 10.5586C88.9883 10.5195 89.0508 10.4766 89.1211 10.4297C89.1914 10.375 89.2656 10.3477 89.3438 10.3477C89.4609 10.3477 89.5625 10.3906 89.6484 10.4766C89.7344 10.5547 89.7773 10.6562 89.7773 10.7812C89.7773 10.9062 89.7344 11.0078 89.6484 11.0859C89.6328 11.1016 89.5312 11.1875 89.3438 11.3438C89.1641 11.4922 88.9023 11.6523 88.5586 11.8242C88.2148 11.9961 87.793 12.1523 87.293 12.293C86.8008 12.4336 86.2344 12.5039 85.5938 12.5039C85 12.5039 84.4336 12.4062 83.8945 12.2109C83.3633 12.0156 82.8945 11.7344 82.4883 11.3672C82.082 11 81.7578 10.5547 81.5156 10.0312C81.2812 9.5 81.1641 8.89844 81.1641 8.22656C81.1641 7.48438 81.3164 6.77344 81.6211 6.09375C81.9258 5.40625 82.3555 4.76562 82.9102 4.17188C83.4648 3.57812 84.1289 3.04297 84.9023 2.56641C85.6758 2.08203 86.5273 1.66797 87.457 1.32422C88.3945 0.980469 89.3984 0.714844 90.4688 0.527344C91.5391 0.339844 92.6445 0.246094 93.7852 0.246094C94.9492 0.246094 96.0156 0.363281 96.9844 0.597656C97.9609 0.824219 98.8008 1.15625 99.5039 1.59375C100.207 2.02344 100.754 2.55469 101.145 3.1875C101.535 3.8125 101.73 4.52344 101.73 5.32031C101.73 6.375 101.426 7.33203 100.816 8.19141C100.215 9.05078 99.3281 9.76562 98.1562 10.3359C98.5859 10.7031 98.9219 11.1328 99.1641 11.625C99.4141 12.1094 99.5977 12.6016 99.7148 13.1016C99.8398 13.6016 99.918 14.0781 99.9492 14.5312C99.9883 14.9844 100.016 15.3633 100.031 15.668C100.047 16.1133 100.086 16.4766 100.148 16.7578C100.219 17.0312 100.312 17.2461 100.43 17.4023C100.555 17.5586 100.703 17.668 100.875 17.7305C101.055 17.7852 101.27 17.8125 101.52 17.8125C101.871 17.8125 102.195 17.7305 102.492 17.5664C102.789 17.3945 103.055 17.1836 103.289 16.9336C103.531 16.6836 103.742 16.4141 103.922 16.125C104.109 15.8281 104.266 15.5547 104.391 15.3047C104.516 15.0469 104.609 14.8359 104.672 14.6719C104.742 14.5 104.777 14.4102 104.777 14.4023C104.855 14.207 104.992 14.1094 105.188 14.1094C105.32 14.1094 105.426 14.1562 105.504 14.25C105.59 14.3359 105.633 14.4375 105.633 14.5547C105.633 14.5938 105.625 14.6445 105.609 14.707C105.602 14.7383 105.555 14.8594 105.469 15.0703C105.391 15.2734 105.273 15.5234 105.117 15.8203C104.961 16.1094 104.766 16.4219 104.531 16.7578C104.297 17.0938 104.023 17.4062 103.711 17.6953C103.406 17.9766 103.059 18.2109 102.668 18.3984C102.285 18.5859 101.859 18.6797 101.391 18.6797C100.977 18.6797 100.629 18.6133 100.348 18.4805C100.074 18.3477 99.8477 18.1562 99.668 17.9062C99.4961 17.6484 99.3672 17.3398 99.2812 16.9805C99.2031 16.6133 99.1562 16.1953 99.1406 15.7266C99.1328 15.5312 99.1211 15.3008 99.1055 15.0352C99.0898 14.7617 99.0586 14.4766 99.0117 14.1797C98.9727 13.875 98.9141 13.5625 98.8359 13.2422C98.7578 12.9219 98.6484 12.6094 98.5078 12.3047C98.3672 12 98.1914 11.7109 97.9805 11.4375C97.7695 11.1641 97.5117 10.9258 97.207 10.7227C96.6055 10.9258 95.9805 11.0859 95.332 11.2031C94.6914 11.3125 94.0273 11.3711 93.3398 11.3789V11.7305C93.3398 12.6914 93.2422 13.5938 93.0469 14.4375C92.8594 15.2734 92.5508 16.0039 92.1211 16.6289C91.6914 17.2461 91.1367 17.7305 90.457 18.082C89.7773 18.4414 88.9492 18.6211 87.9727 18.6211C87.4883 18.6211 87.0078 18.5547 86.5312 18.4219C86.0625 18.2969 85.6211 18.1211 85.207 17.8945C84.8008 17.668 84.4336 17.4023 84.1055 17.0977C83.7852 16.7852 83.5312 16.4492 83.3438 16.0898C83.3047 16.0273 83.2852 15.957 83.2852 15.8789C83.2852 15.7695 83.3242 15.6719 83.4023 15.5859C83.4883 15.4922 83.5977 15.4453 83.7305 15.4453C83.9023 15.4453 84.0312 15.5195 84.1172 15.668C84.2891 15.9727 84.5117 16.2539 84.7852 16.5117C85.0586 16.7695 85.3633 16.9922 85.6992 17.1797C86.043 17.3594 86.4062 17.5 86.7891 17.6016C87.1797 17.7031 87.5742 17.7539 87.9727 17.7539C88.7773 17.7539 89.4648 17.6133 90.0352 17.332C90.6055 17.043 91.0703 16.6367 91.4297 16.1133C91.7891 15.582 92.0508 14.9492 92.2148 14.2148C92.3789 13.4727 92.4609 12.6445 92.4609 11.7305V11.2734C92.2031 11.1875 91.9961 11.0664 91.8398 10.9102C91.6836 10.7539 91.6055 10.5625 91.6055 10.3359C91.6055 10.1094 91.6797 9.91016 91.8281 9.73828C91.9766 9.56641 92.1875 9.42578 92.4609 9.31641C92.4609 9.13672 92.4648 8.96094 92.4727 8.78906C92.4805 8.60938 92.4922 8.43359 92.5078 8.26172C92.5547 7.69922 92.6406 7.19531 92.7656 6.75C92.8984 6.30469 93.0508 5.91406 93.2227 5.57812C93.4023 5.24219 93.5859 4.95703 93.7734 4.72266C93.9609 4.48828 94.1367 4.29688 94.3008 4.14844C94.4648 3.99219 94.6016 3.87891 94.7109 3.80859C94.8203 3.73828 94.8828 3.69922 94.8984 3.69141C94.9531 3.66016 95.0195 3.64453 95.0977 3.64453ZM96.1992 10.1836C96.0664 10.1445 95.9375 10.1055 95.8125 10.0664C95.6875 10.0273 95.5508 9.99609 95.4023 9.97266C95.2617 9.94141 95.1016 9.91797 94.9219 9.90234C94.75 9.87891 94.5508 9.86719 94.3242 9.86719C93.918 9.86719 93.5859 9.89062 93.3281 9.9375V9.94922V10.5117C93.8047 10.5117 94.293 10.4844 94.793 10.4297C95.3008 10.375 95.7695 10.293 96.1992 10.1836ZM113.801 14.7305C113.77 14.793 113.703 14.9258 113.602 15.1289C113.508 15.3242 113.383 15.5508 113.227 15.8086C113.078 16.0664 112.902 16.3359 112.699 16.6172C112.496 16.8984 112.27 17.1562 112.02 17.3906C111.77 17.625 111.5 17.8203 111.211 17.9766C110.922 18.125 110.617 18.1992 110.297 18.1992C109.844 18.1992 109.461 18.0547 109.148 17.7656C108.844 17.4766 108.621 17.1133 108.48 16.6758C108.215 17.1211 107.898 17.4766 107.531 17.7422C107.164 18 106.797 18.1289 106.43 18.1289C106.141 18.1289 105.879 18.0781 105.645 17.9766C105.41 17.8672 105.211 17.7188 105.047 17.5312C104.883 17.3359 104.754 17.1094 104.66 16.8516C104.574 16.5938 104.531 16.3125 104.531 16.0078C104.531 15.3984 104.633 14.8633 104.836 14.4023C105.047 13.9336 105.312 13.543 105.633 13.2305C105.953 12.918 106.305 12.6836 106.688 12.5273C107.078 12.3711 107.453 12.293 107.812 12.293C108.055 12.293 108.277 12.3281 108.48 12.3984C108.684 12.4609 108.855 12.5312 108.996 12.6094C109.145 12.6875 109.258 12.7617 109.336 12.832C109.414 12.8945 109.457 12.9297 109.465 12.9375C109.551 13.0391 109.594 13.1445 109.594 13.2539C109.594 13.3711 109.551 13.4766 109.465 13.5703C109.379 13.6562 109.277 13.6992 109.16 13.6992C109.035 13.6992 108.93 13.6562 108.844 13.5703C108.828 13.5547 108.793 13.5273 108.738 13.4883C108.684 13.4414 108.609 13.3945 108.516 13.3477C108.422 13.3008 108.309 13.2617 108.176 13.2305C108.051 13.1914 107.906 13.1719 107.742 13.1719C107.5 13.1719 107.242 13.2266 106.969 13.3359C106.695 13.4453 106.445 13.6172 106.219 13.8516C105.992 14.0781 105.801 14.3672 105.645 14.7188C105.496 15.0625 105.422 15.4727 105.422 15.9492C105.422 16.0977 105.438 16.25 105.469 16.4062C105.5 16.5547 105.555 16.6914 105.633 16.8164C105.711 16.9414 105.816 17.043 105.949 17.1211C106.082 17.1992 106.246 17.2383 106.441 17.2383C106.582 17.2383 106.742 17.1914 106.922 17.0977C107.109 17.0039 107.285 16.8594 107.449 16.6641C107.621 16.4688 107.773 16.2227 107.906 15.9258C108.047 15.6289 108.145 15.2773 108.199 14.8711C108.215 14.7617 108.266 14.6719 108.352 14.6016C108.438 14.5234 108.539 14.4844 108.656 14.4844C108.766 14.4844 108.859 14.5273 108.938 14.6133C109.023 14.6992 109.07 14.7969 109.078 14.9062C109.086 15.0547 109.102 15.2656 109.125 15.5391C109.148 15.8047 109.199 16.0703 109.277 16.3359C109.363 16.6016 109.488 16.832 109.652 17.0273C109.816 17.2227 110.043 17.3203 110.332 17.3203C110.52 17.3203 110.703 17.2695 110.883 17.168C111.07 17.0664 111.25 16.9336 111.422 16.7695C111.602 16.5977 111.77 16.4062 111.926 16.1953C112.09 15.9766 112.238 15.7578 112.371 15.5391C112.504 15.3203 112.621 15.1094 112.723 14.9062C112.824 14.7031 112.91 14.5273 112.98 14.3789C113.02 14.293 113.074 14.2266 113.145 14.1797C113.223 14.1328 113.305 14.1094 113.391 14.1094C113.523 14.1094 113.629 14.1602 113.707 14.2617C113.793 14.3555 113.836 14.457 113.836 14.5664C113.836 14.6211 113.824 14.6758 113.801 14.7305ZM113.918 17.0039C114.043 16.7383 114.188 16.4531 114.352 16.1484C114.516 15.8359 114.691 15.5195 114.879 15.1992C115.066 14.8711 115.266 14.5469 115.477 14.2266C115.688 13.9062 115.906 13.6055 116.133 13.3242C116.359 13.0508 116.586 12.8555 116.812 12.7383C117.047 12.6133 117.266 12.5508 117.469 12.5508C117.672 12.5508 117.848 12.5938 117.996 12.6797C118.152 12.7578 118.277 12.8672 118.371 13.0078C118.473 13.1484 118.547 13.3125 118.594 13.5C118.648 13.6875 118.676 13.8906 118.676 14.1094C118.676 14.2891 118.656 14.5312 118.617 14.8359C118.586 15.1328 118.57 15.4453 118.57 15.7734C118.57 15.9609 118.578 16.1484 118.594 16.3359C118.617 16.5156 118.652 16.6797 118.699 16.8281C118.754 16.9688 118.832 17.0859 118.934 17.1797C119.035 17.2656 119.168 17.3086 119.332 17.3086C119.52 17.3086 119.707 17.2578 119.895 17.1562C120.082 17.0469 120.266 16.9062 120.445 16.7344C120.625 16.5547 120.797 16.3594 120.961 16.1484C121.125 15.9297 121.273 15.7148 121.406 15.5039C121.539 15.2852 121.656 15.0781 121.758 14.8828C121.859 14.6797 121.941 14.5117 122.004 14.3789C122.082 14.1992 122.219 14.1094 122.414 14.1094C122.547 14.1094 122.652 14.1562 122.73 14.25C122.809 14.3438 122.848 14.4453 122.848 14.5547C122.848 14.6172 122.836 14.6758 122.812 14.7305C122.781 14.793 122.719 14.9219 122.625 15.1172C122.539 15.3125 122.418 15.5391 122.262 15.7969C122.113 16.0547 121.938 16.3242 121.734 16.6055C121.531 16.8867 121.305 17.1484 121.055 17.3906C120.812 17.625 120.547 17.8203 120.258 17.9766C119.977 18.125 119.68 18.1992 119.367 18.1992C119.008 18.1992 118.719 18.125 118.5 17.9766C118.281 17.8203 118.109 17.625 117.984 17.3906C117.867 17.1562 117.785 16.8945 117.738 16.6055C117.699 16.3164 117.68 16.0352 117.68 15.7617C117.68 15.6211 117.684 15.4727 117.691 15.3164C117.707 15.1523 117.723 14.9922 117.738 14.8359C117.754 14.6797 117.766 14.5352 117.773 14.4023C117.789 14.2617 117.797 14.1445 117.797 14.0508C117.797 13.8086 117.762 13.6445 117.691 13.5586C117.629 13.4727 117.555 13.4297 117.469 13.4297C117.344 13.4297 117.199 13.5039 117.035 13.6523C116.879 13.793 116.711 13.9805 116.531 14.2148C116.359 14.4492 116.184 14.7148 116.004 15.0117C115.832 15.3008 115.664 15.5898 115.5 15.8789C115.336 16.168 115.188 16.4453 115.055 16.7109C114.922 16.9688 114.812 17.1836 114.727 17.3555C114.562 17.6836 114.395 17.9023 114.223 18.0117C114.059 18.1289 113.91 18.1875 113.777 18.1875C113.535 18.1875 113.348 18.0938 113.215 17.9062C113.09 17.7109 113.027 17.4766 113.027 17.2031V16.4648C113.027 14.9883 113.027 13.582 113.027 12.2461C113.035 10.9023 113.055 9.65625 113.086 8.50781C113.125 7.35156 113.184 6.30859 113.262 5.37891C113.348 4.44141 113.473 3.64453 113.637 2.98828C113.801 2.32422 114.008 1.8125 114.258 1.45312C114.516 1.09375 114.836 0.914062 115.219 0.914062C115.547 0.914062 115.824 1.00391 116.051 1.18359C116.277 1.36328 116.461 1.60937 116.602 1.92188C116.742 2.22656 116.844 2.58594 116.906 3C116.969 3.40625 117 3.83594 117 4.28906C117 5.21094 116.914 6.11719 116.742 7.00781C116.578 7.89062 116.355 8.75391 116.074 9.59766C115.793 10.4414 115.465 11.2656 115.09 12.0703C114.715 12.8672 114.32 13.6445 113.906 14.4023C113.906 14.543 113.906 14.7109 113.906 14.9062C113.906 15.1016 113.906 15.2969 113.906 15.4922C113.906 15.6875 113.906 15.8711 113.906 16.043C113.906 16.2148 113.906 16.3516 113.906 16.4531L113.918 17.0039ZM113.918 12.6797C114.246 11.9609 114.543 11.2617 114.809 10.582C115.082 9.89453 115.312 9.21094 115.5 8.53125C115.695 7.85156 115.848 7.16406 115.957 6.46875C116.066 5.76562 116.121 5.03516 116.121 4.27734C116.121 4.15234 116.113 3.95312 116.098 3.67969C116.09 3.40625 116.055 3.12891 115.992 2.84766C115.938 2.56641 115.848 2.32031 115.723 2.10938C115.605 1.89844 115.438 1.79297 115.219 1.79297C115.047 1.79297 114.898 1.91016 114.773 2.14453C114.648 2.37109 114.539 2.68359 114.445 3.08203C114.352 3.47266 114.273 3.92969 114.211 4.45312C114.148 4.97656 114.098 5.53125 114.059 6.11719C114.02 6.70312 113.988 7.30469 113.965 7.92188C113.949 8.53906 113.938 9.14062 113.93 9.72656C113.922 10.3047 113.918 10.8477 113.918 11.3555C113.918 11.8633 113.918 12.3047 113.918 12.6797ZM124.723 16.957C124.84 16.7227 124.988 16.4336 125.168 16.0898C125.355 15.7383 125.547 15.3867 125.742 15.0352C125.945 14.6836 126.141 14.3516 126.328 14.0391C126.523 13.7266 126.688 13.4883 126.82 13.3242C127.047 13.0508 127.281 12.8555 127.523 12.7383C127.766 12.6211 127.988 12.5625 128.191 12.5625C128.395 12.5625 128.566 12.6055 128.707 12.6914C128.855 12.7773 128.977 12.8945 129.07 13.043C129.164 13.1836 129.234 13.3516 129.281 13.5469C129.328 13.7344 129.352 13.9375 129.352 14.1562C129.352 14.2812 129.344 14.4453 129.328 14.6484C129.32 14.8516 129.309 15.0703 129.293 15.3047C129.285 15.5391 129.273 15.7812 129.258 16.0312C129.25 16.2812 129.242 16.5156 129.234 16.7344C129.352 16.5 129.484 16.2422 129.633 15.9609C129.781 15.6719 129.93 15.3867 130.078 15.1055C130.234 14.8242 130.383 14.5625 130.523 14.3203C130.664 14.0703 130.793 13.8672 130.91 13.7109C131.246 13.25 131.559 12.9414 131.848 12.7852C132.145 12.6289 132.406 12.5508 132.633 12.5508C132.898 12.5508 133.117 12.6016 133.289 12.7031C133.461 12.7969 133.594 12.9219 133.688 13.0781C133.789 13.2266 133.859 13.3945 133.898 13.582C133.938 13.7695 133.957 13.9492 133.957 14.1211C133.957 14.3867 133.938 14.6641 133.898 14.9531C133.859 15.2422 133.84 15.5859 133.84 15.9844C133.84 16.1484 133.848 16.3125 133.863 16.4766C133.879 16.6406 133.91 16.7852 133.957 16.9102C134.012 17.0352 134.094 17.1367 134.203 17.2148C134.312 17.293 134.461 17.332 134.648 17.332C134.852 17.332 135.051 17.2812 135.246 17.1797C135.441 17.0703 135.629 16.9297 135.809 16.7578C135.988 16.5859 136.156 16.3906 136.312 16.1719C136.477 15.9531 136.625 15.7344 136.758 15.5156C136.891 15.2969 137.008 15.0898 137.109 14.8945C137.211 14.6914 137.293 14.5195 137.355 14.3789C137.395 14.293 137.449 14.2266 137.52 14.1797C137.59 14.1328 137.668 14.1094 137.754 14.1094C137.887 14.1094 137.992 14.1602 138.07 14.2617C138.156 14.3555 138.199 14.457 138.199 14.5664C138.199 14.6211 138.188 14.6758 138.164 14.7305C138.133 14.793 138.07 14.9258 137.977 15.1289C137.883 15.3242 137.758 15.5508 137.602 15.8086C137.445 16.0586 137.262 16.3242 137.051 16.6055C136.848 16.8867 136.621 17.1484 136.371 17.3906C136.121 17.625 135.852 17.8203 135.562 17.9766C135.273 18.125 134.969 18.1992 134.648 18.1992C134.305 18.1992 134.023 18.1367 133.805 18.0117C133.594 17.8945 133.422 17.7344 133.289 17.5312C133.164 17.3281 133.078 17.0938 133.031 16.8281C132.984 16.5625 132.961 16.2852 132.961 15.9961C132.961 15.6133 132.98 15.2617 133.02 14.9414C133.059 14.6133 133.078 14.3594 133.078 14.1797C133.078 13.9844 133.059 13.8359 133.02 13.7344C132.988 13.6328 132.945 13.5625 132.891 13.5234C132.844 13.4766 132.797 13.4531 132.75 13.4531C132.703 13.4453 132.668 13.4414 132.645 13.4414C132.457 13.4414 132.258 13.5469 132.047 13.7578C131.844 13.9609 131.633 14.2344 131.414 14.5781C131.195 14.9219 130.969 15.3125 130.734 15.75C130.508 16.1875 130.277 16.6328 130.043 17.0859C129.91 17.3359 129.797 17.543 129.703 17.707C129.617 17.8711 129.531 18 129.445 18.0938C129.367 18.1875 129.289 18.2539 129.211 18.293C129.133 18.332 129.047 18.3516 128.953 18.3516C128.75 18.3516 128.594 18.2812 128.484 18.1406C128.383 18 128.332 17.8164 128.332 17.5898C128.332 17.4727 128.336 17.3164 128.344 17.1211C128.352 16.9258 128.359 16.7109 128.367 16.4766C128.375 16.2422 128.387 16 128.402 15.75C128.418 15.5 128.43 15.2617 128.438 15.0352C128.445 14.8008 128.453 14.5938 128.461 14.4141C128.469 14.2344 128.473 14.0977 128.473 14.0039C128.473 13.8008 128.438 13.6562 128.367 13.5703C128.297 13.4766 128.215 13.4297 128.121 13.4297C128.035 13.4297 127.938 13.4609 127.828 13.5234C127.727 13.5859 127.605 13.707 127.465 13.8867C127.355 14.0273 127.215 14.2344 127.043 14.5078C126.879 14.7734 126.703 15.0703 126.516 15.3984C126.328 15.7266 126.141 16.0625 125.953 16.4062C125.773 16.75 125.617 17.0586 125.484 17.332C125.32 17.6602 125.156 17.8828 124.992 18C124.828 18.125 124.668 18.1875 124.512 18.1875C124.285 18.1875 124.117 18.1211 124.008 17.9883C123.898 17.8477 123.844 17.6641 123.844 17.4375C123.844 17.4141 123.848 17.2734 123.855 17.0156C123.871 16.7578 123.887 16.4453 123.902 16.0781C123.918 15.7031 123.934 15.3047 123.949 14.8828C123.973 14.4609 123.992 14.0664 124.008 13.6992C124.016 13.5039 124.008 13.3242 123.984 13.1602C123.961 12.9961 123.93 12.8984 123.891 12.8672C123.828 12.8828 123.703 13.0273 123.516 13.3008C123.336 13.5742 123.105 14.0508 122.824 14.7305C122.785 14.8164 122.727 14.8828 122.648 14.9297C122.57 14.9766 122.488 15 122.402 15C122.27 15 122.164 14.957 122.086 14.8711C122.008 14.7773 121.969 14.6719 121.969 14.5547C121.969 14.5 121.98 14.4414 122.004 14.3789C122.355 13.543 122.691 12.9297 123.012 12.5391C123.332 12.1406 123.645 11.9414 123.949 11.9414C124.129 11.9414 124.277 11.9844 124.395 12.0703C124.52 12.1484 124.617 12.2539 124.688 12.3867C124.758 12.5117 124.809 12.6562 124.84 12.8203C124.871 12.9844 124.887 13.1445 124.887 13.3008C124.887 13.9961 124.867 14.6328 124.828 15.2109C124.797 15.7891 124.762 16.3711 124.723 16.957ZM146.426 14.7305C146.395 14.793 146.328 14.9258 146.227 15.1289C146.133 15.3242 146.008 15.5508 145.852 15.8086C145.703 16.0664 145.527 16.3359 145.324 16.6172C145.121 16.8984 144.895 17.1562 144.645 17.3906C144.395 17.625 144.125 17.8203 143.836 17.9766C143.547 18.125 143.242 18.1992 142.922 18.1992C142.469 18.1992 142.086 18.0547 141.773 17.7656C141.469 17.4766 141.246 17.1133 141.105 16.6758C140.84 17.1211 140.523 17.4766 140.156 17.7422C139.789 18 139.422 18.1289 139.055 18.1289C138.766 18.1289 138.504 18.0781 138.27 17.9766C138.035 17.8672 137.836 17.7188 137.672 17.5312C137.508 17.3359 137.379 17.1094 137.285 16.8516C137.199 16.5938 137.156 16.3125 137.156 16.0078C137.156 15.3984 137.258 14.8633 137.461 14.4023C137.672 13.9336 137.938 13.543 138.258 13.2305C138.578 12.918 138.93 12.6836 139.312 12.5273C139.703 12.3711 140.078 12.293 140.438 12.293C140.68 12.293 140.902 12.3281 141.105 12.3984C141.309 12.4609 141.48 12.5312 141.621 12.6094C141.77 12.6875 141.883 12.7617 141.961 12.832C142.039 12.8945 142.082 12.9297 142.09 12.9375C142.176 13.0391 142.219 13.1445 142.219 13.2539C142.219 13.3711 142.176 13.4766 142.09 13.5703C142.004 13.6562 141.902 13.6992 141.785 13.6992C141.66 13.6992 141.555 13.6562 141.469 13.5703C141.453 13.5547 141.418 13.5273 141.363 13.4883C141.309 13.4414 141.234 13.3945 141.141 13.3477C141.047 13.3008 140.934 13.2617 140.801 13.2305C140.676 13.1914 140.531 13.1719 140.367 13.1719C140.125 13.1719 139.867 13.2266 139.594 13.3359C139.32 13.4453 139.07 13.6172 138.844 13.8516C138.617 14.0781 138.426 14.3672 138.27 14.7188C138.121 15.0625 138.047 15.4727 138.047 15.9492C138.047 16.0977 138.062 16.25 138.094 16.4062C138.125 16.5547 138.18 16.6914 138.258 16.8164C138.336 16.9414 138.441 17.043 138.574 17.1211C138.707 17.1992 138.871 17.2383 139.066 17.2383C139.207 17.2383 139.367 17.1914 139.547 17.0977C139.734 17.0039 139.91 16.8594 140.074 16.6641C140.246 16.4688 140.398 16.2227 140.531 15.9258C140.672 15.6289 140.77 15.2773 140.824 14.8711C140.84 14.7617 140.891 14.6719 140.977 14.6016C141.062 14.5234 141.164 14.4844 141.281 14.4844C141.391 14.4844 141.484 14.5273 141.562 14.6133C141.648 14.6992 141.695 14.7969 141.703 14.9062C141.711 15.0547 141.727 15.2656 141.75 15.5391C141.773 15.8047 141.824 16.0703 141.902 16.3359C141.988 16.6016 142.113 16.832 142.277 17.0273C142.441 17.2227 142.668 17.3203 142.957 17.3203C143.145 17.3203 143.328 17.2695 143.508 17.168C143.695 17.0664 143.875 16.9336 144.047 16.7695C144.227 16.5977 144.395 16.4062 144.551 16.1953C144.715 15.9766 144.863 15.7578 144.996 15.5391C145.129 15.3203 145.246 15.1094 145.348 14.9062C145.449 14.7031 145.535 14.5273 145.605 14.3789C145.645 14.293 145.699 14.2266 145.77 14.1797C145.848 14.1328 145.93 14.1094 146.016 14.1094C146.148 14.1094 146.254 14.1602 146.332 14.2617C146.418 14.3555 146.461 14.457 146.461 14.5664C146.461 14.6211 146.449 14.6758 146.426 14.7305ZM148.219 16.9453C148.344 16.6875 148.488 16.4062 148.652 16.1016C148.816 15.7891 148.992 15.4766 149.18 15.1641C149.367 14.8438 149.562 14.5273 149.766 14.2148C149.977 13.9023 150.195 13.6055 150.422 13.3242C150.648 13.0508 150.875 12.8555 151.102 12.7383C151.336 12.6133 151.555 12.5508 151.758 12.5508C152.164 12.5508 152.465 12.6992 152.66 12.9961C152.855 13.293 152.953 13.6602 152.953 14.0977C152.953 14.1992 152.945 14.3242 152.93 14.4727C152.922 14.6133 152.91 14.7656 152.895 14.9297C152.887 15.0938 152.875 15.2617 152.859 15.4336C152.852 15.5977 152.848 15.7539 152.848 15.9023C152.848 16.0898 152.855 16.2695 152.871 16.4414C152.895 16.6133 152.934 16.7656 152.988 16.8984C153.043 17.0234 153.121 17.125 153.223 17.2031C153.324 17.2734 153.457 17.3086 153.621 17.3086C153.918 17.3086 154.207 17.1953 154.488 16.9688C154.77 16.7344 155.027 16.4609 155.262 16.1484C155.504 15.8281 155.711 15.5039 155.883 15.1758C156.062 14.8477 156.195 14.582 156.281 14.3789C156.32 14.293 156.375 14.2266 156.445 14.1797C156.523 14.1328 156.605 14.1094 156.691 14.1094C156.824 14.1094 156.93 14.1602 157.008 14.2617C157.094 14.3555 157.137 14.457 157.137 14.5664C157.137 14.6211 157.125 14.6758 157.102 14.7305C157.07 14.793 157.008 14.9219 156.914 15.1172C156.82 15.3125 156.695 15.5391 156.539 15.7969C156.391 16.0469 156.215 16.3164 156.012 16.6055C155.809 16.8867 155.582 17.1445 155.332 17.3789C155.09 17.6133 154.824 17.8086 154.535 17.9648C154.254 18.1211 153.957 18.1992 153.645 18.1992C153.293 18.1992 153.008 18.1328 152.789 18C152.57 17.8594 152.398 17.6797 152.273 17.4609C152.148 17.2344 152.062 16.9883 152.016 16.7227C151.977 16.4492 151.957 16.1758 151.957 15.9023C151.957 15.7852 151.961 15.6523 151.969 15.5039C151.984 15.3555 152 15.1992 152.016 15.0352C152.039 14.8711 152.055 14.707 152.062 14.543C152.078 14.3789 152.086 14.2227 152.086 14.0742C152.086 13.8242 152.047 13.6562 151.969 13.5703C151.891 13.4766 151.82 13.4297 151.758 13.4297C151.633 13.4297 151.488 13.5039 151.324 13.6523C151.168 13.793 151 13.9805 150.82 14.2148C150.648 14.4492 150.469 14.7148 150.281 15.0117C150.102 15.3008 149.93 15.5898 149.766 15.8789C149.609 16.168 149.461 16.4453 149.32 16.7109C149.188 16.9688 149.082 17.1836 149.004 17.3555C148.848 17.6836 148.691 17.9023 148.535 18.0117C148.379 18.1289 148.219 18.1875 148.055 18.1875C147.828 18.1875 147.645 18.1211 147.504 17.9883C147.371 17.8477 147.305 17.6523 147.305 17.4023C147.305 17.3477 147.312 17.2422 147.328 17.0859C147.344 16.9219 147.363 16.7305 147.387 16.5117C147.41 16.2852 147.434 16.043 147.457 15.7852C147.48 15.5273 147.504 15.2734 147.527 15.0234C147.551 14.7656 147.57 14.5273 147.586 14.3086C147.602 14.0898 147.609 13.9062 147.609 13.7578C147.609 13.5625 147.602 13.375 147.586 13.1953C147.57 13.0156 147.539 12.9062 147.492 12.8672C147.422 12.8906 147.297 13.0391 147.117 13.3125C146.938 13.5781 146.707 14.0508 146.426 14.7305C146.387 14.8164 146.328 14.8828 146.25 14.9297C146.172 14.9766 146.09 15 146.004 15C145.871 15 145.766 14.957 145.688 14.8711C145.609 14.7773 145.57 14.6719 145.57 14.5547C145.57 14.5 145.582 14.4414 145.605 14.3789C145.957 13.543 146.285 12.9297 146.59 12.5391C146.902 12.1406 147.211 11.9414 147.516 11.9414C147.695 11.9414 147.848 11.9883 147.973 12.082C148.098 12.168 148.195 12.2852 148.266 12.4336C148.344 12.582 148.398 12.7461 148.43 12.9258C148.469 13.1055 148.488 13.2891 148.488 13.4766C148.488 13.6172 148.477 13.8359 148.453 14.1328C148.438 14.4297 148.414 14.75 148.383 15.0938C148.352 15.4297 148.32 15.7656 148.289 16.1016C148.266 16.4375 148.242 16.7188 148.219 16.9453Z" fill="black"/>
</svg>
