<svg width="32" height="48" viewBox="0 0 32 48" fill="none" xmlns="http://www.w3.org/2000/svg">
<path d="M10.0002 47.48C9.70025 47.4835 9.40428 47.4113 9.13976 47.2698C8.87524 47.1284 8.65074 46.9224 8.48713 46.671C8.32352 46.4196 8.22609 46.1309 8.2039 45.8318C8.1817 45.5327 8.23547 45.2328 8.36019 44.96L13.1602 34.18H7.68019C7.34418 34.1791 7.01513 34.0842 6.73027 33.9059C6.44541 33.7277 6.21613 33.4733 6.06836 33.1716C5.9206 32.8698 5.86025 32.5327 5.89415 32.1984C5.92805 31.8641 6.05485 31.5459 6.26019 31.28L14.5602 20.38C14.8678 20.047 15.2885 19.8407 15.7402 19.8016C16.1918 19.7625 16.6417 19.8933 17.002 20.1685C17.3622 20.4437 17.6068 20.8434 17.6878 21.2894C17.7689 21.7354 17.6806 22.1956 17.4402 22.58L11.3202 30.58H16.0002C16.3013 30.5818 16.5974 30.6576 16.8624 30.8006C17.1274 30.9435 17.3533 31.1494 17.5202 31.4C17.6808 31.6544 17.7758 31.9447 17.7968 32.2449C17.8177 32.545 17.7639 32.8457 17.6402 33.12L16.0002 37L27.4602 25.1L3.78019 5.99997V45.4C3.78019 45.8774 3.59055 46.3352 3.25298 46.6728C2.91542 47.0103 2.45758 47.2 1.98019 47.2C1.5028 47.2 1.04496 47.0103 0.707397 46.6728C0.369831 46.3352 0.18019 45.8774 0.18019 45.4V2.31997C0.178857 1.97861 0.274617 1.64391 0.456299 1.35492C0.637982 1.06593 0.898096 0.834553 1.2063 0.687792C1.51449 0.54103 1.85807 0.484932 2.19695 0.526041C2.53582 0.56715 2.85602 0.703773 3.12019 0.919969L31.1202 23.52C31.4959 23.8548 31.7316 24.319 31.7802 24.82C31.7956 25.0689 31.7592 25.3184 31.6731 25.5525C31.587 25.7866 31.4532 26.0003 31.2802 26.18L11.2802 46.94C10.9417 47.2821 10.4815 47.4763 10.0002 47.48Z" fill="white"/>
</svg>
