<svg width="20" height="14" viewBox="0 0 20 14" fill="none" xmlns="http://www.w3.org/2000/svg">
<path d="M19.3202 6.75C19.2968 6.6875 18.6327 5.21875 17.164 3.74219C15.203 1.78906 12.7265 0.75 9.99992 0.75C7.27336 0.75 4.7968 1.78906 2.83586 3.74219C1.36711 5.21875 0.703046 6.6875 0.679609 6.75C0.644728 6.82873 0.626709 6.91389 0.626709 7C0.626709 7.08611 0.644728 7.17127 0.679609 7.25C0.703046 7.3125 1.36711 8.78125 2.83586 10.2578C4.7968 12.2109 7.27336 13.25 9.99992 13.25C12.7265 13.25 15.203 12.2109 17.164 10.2578C18.6327 8.78125 19.2968 7.3125 19.3202 7.25C19.3551 7.17127 19.3731 7.08611 19.3731 7C19.3731 6.91389 19.3551 6.82873 19.3202 6.75ZM9.99992 4.1875C10.5562 4.1875 11.1 4.35245 11.5625 4.66149C12.025 4.97053 12.3855 5.40979 12.5983 5.9237C12.8112 6.43762 12.8669 7.00312 12.7584 7.54869C12.6499 8.09426 12.382 8.5954 11.9887 8.98874C11.5953 9.38207 11.0942 9.64994 10.5486 9.75846C10.003 9.86698 9.43754 9.81128 8.92362 9.59841C8.40971 9.38554 7.97046 9.02505 7.66141 8.56254C7.35237 8.10003 7.18742 7.55626 7.18742 7C7.18742 6.25408 7.48374 5.53871 8.01118 5.01126C8.53863 4.48382 9.254 4.1875 9.99992 4.1875Z" fill="#828282"/>
</svg>
